<?xml version="1.0" encoding="utf-8"?>
<!-- Generator: Adobe Illustrator 21.0.2, SVG Export Plug-In . SVG Version: 6.00 Build 0)  -->
<svg version="1.1" id="Capa_1" xmlns="http://www.w3.org/2000/svg" xmlns:xlink="http://www.w3.org/1999/xlink" x="0px" y="0px"
	 viewBox="0 0 629 307.6" style="enable-background:new 0 0 629 307.6;" xml:space="preserve">
<style type="text/css">
	.st0{fill:#152F4F;}
</style>
<title>logo</title>
<g>
	<circle class="st0" cx="156.5" cy="153.8" r="97.5"/>
	<g>
		<path class="st0" d="M298.1,103.1h11.6v80.1h38.4v9.7h-50V103.1z"/>
	</g>
	<path class="st0" d="M417.2,160.2c0,23.9-16.5,34.3-32.1,34.3c-17.5,0-30.9-12.8-30.9-33.2c0-21.6,14.1-34.3,32-34.3
		C404.7,127,417.2,140.4,417.2,160.2z M366,160.8c0,14.1,8.1,24.8,19.6,24.8c11.2,0,19.6-10.5,19.6-25.1c0-10.9-5.5-24.8-19.3-24.8
		C372,135.8,366,148.6,366,160.8z"/>
	<path class="st0" d="M487.6,128.4c-0.3,4.7-0.5,9.9-0.5,17.7v37.5c0,14.8-2.9,23.9-9.2,29.5c-6.3,5.9-15.3,7.7-23.5,7.7
		c-7.7,0-16.3-1.9-21.5-5.3l2.9-8.9c4.3,2.7,10.9,5.1,18.9,5.1c12,0,20.8-6.3,20.8-22.5V182h-0.3c-3.6,6-10.5,10.8-20.5,10.8
		c-16,0-27.5-13.6-27.5-31.5c0-21.9,14.3-34.3,29.1-34.3c11.2,0,17.3,5.9,20.1,11.2h0.3l0.5-9.7h10.4V128.4z M475.5,153.9
		c0-2-0.1-3.7-0.7-5.3c-2.1-6.8-7.9-12.4-16.4-12.4c-11.2,0-19.2,9.5-19.2,24.4c0,12.7,6.4,23.2,19.1,23.2c7.2,0,13.7-4.5,16.3-12
		c0.7-2,0.9-4.3,0.9-6.3L475.5,153.9L475.5,153.9z"/>
	<path class="st0" d="M564.9,160.2c0,23.9-16.5,34.3-32.1,34.3c-17.5,0-30.9-12.8-30.9-33.2c0-21.6,14.1-34.3,32-34.3
		C552.4,127,564.9,140.4,564.9,160.2z M513.7,160.8c0,14.1,8.1,24.8,19.6,24.8c11.2,0,19.6-10.5,19.6-25.1
		c0-10.9-5.5-24.8-19.3-24.8S513.7,148.6,513.7,160.8z"/>
</g>
</svg>
