<?xml version="1.0" encoding="utf-8"?>
<!-- Generator: Adobe Illustrator 18.0.0, SVG Export Plug-In . SVG Version: 6.00 Build 0)  -->
<!DOCTYPE svg PUBLIC "-//W3C//DTD SVG 1.1//EN" "http://www.w3.org/Graphics/SVG/1.1/DTD/svg11.dtd">
<svg version="1.1" id="Capa_1" xmlns="http://www.w3.org/2000/svg" xmlns:xlink="http://www.w3.org/1999/xlink" x="0px" y="0px"
	 viewBox="0 0 1000 498" enable-background="new 0 0 1000 498" xml:space="preserve">
<g>
	<g>
		<g>
			<g>
				<path fill="#F0D632" d="M773.2,63.1c-69.9,0-126.5,56.6-126.5,126.5s56.6,126.5,126.5,126.5s126.5-56.6,126.5-126.5
					S843,63.1,773.2,63.1z M771.4,233.6c-2.7,5.5-6.4,9.9-11.1,13.3c-4.7,3.3-10.5,5.3-17.4,6.1c-4.3,0.5-14.8,0.8-31.3,0.9h-24.2
					c-3.2,0-5.1-3.5-3.4-6.1l6.5-10.4c2-3.2,5.5-5.1,9.2-5.1h18c9.4,0,15.3-0.3,17.8-0.8c3.9-0.7,7-2.4,9.4-5.1
					c2.4-2.7,3.6-6.4,3.6-10.9c0-3.9-0.9-7.1-2.8-9.8c-1.9-2.7-4.6-4.6-8.1-5.9c-3.5-1.2-11.2-1.8-23-1.8h-2.3v22.4
					c0,2.4-2.6,4.4-5.7,4.4h-12.2c-0.4,0-0.7-0.2-0.7-0.5v-70.6c0-0.2,0.1-0.4,0.3-0.4h10.9c4.2,0,7.5,2.6,7.5,5.7v17.6
					c9.2,0,14.9-0.2,17.2-0.4c4.4-0.5,7.9-2.1,10.5-4.6c2.6-2.5,3.8-5.9,3.8-10c0-4-1.1-7.2-3.3-9.7c-2.2-2.5-5.5-4-9.8-4.5
					c-2.6-0.3-10-0.4-22.2-0.4h-8.5c-4,0-7.7-2-9.8-5.4l-6.2-9.9c-1.7-2.7,0.2-6.1,3.4-6.1h31.6c10.2,0,17.8,0.4,22.8,1.3
					c5,0.8,9.5,2.6,13.4,5.3c3.9,2.7,7.2,6.3,9.9,10.8c2.6,4.5,3.9,9.5,3.9,15c0,6-1.6,11.6-4.9,16.6c-1.9,2.9-4.2,5.4-6.9,7.5
					c-2.2,1.7-1.9,5.2,0.6,6.5c4.5,2.3,8.3,5.3,11.1,9c4.2,5.5,6.3,12,6.3,19.4C775.4,222.4,774.1,228.1,771.4,233.6z"/>
				<path d="M817.8,178.7"/>
				<path fill="#19486A" d="M775.4,216.5c0,5.8-1.4,11.5-4.1,17.1c-2.7,5.5-6.4,9.9-11.1,13.3c-4.7,3.3-10.5,5.3-17.4,6.1
					c-4.3,0.5-14.8,0.8-31.3,0.9h-24.2c-3.2,0-5.1-3.5-3.4-6.1l6.5-10.4c2-3.2,5.5-5.1,9.2-5.1h18c9.4,0,15.3-0.3,17.8-0.8
					c3.9-0.7,7-2.4,9.4-5.1c2.4-2.7,3.6-6.4,3.6-10.9c0-3.9-0.9-7.1-2.8-9.8c-1.9-2.7-4.6-4.6-8.1-5.9c-3.5-1.2-11.2-1.8-23-1.8
					h-2.3v22.4c0,2.4-2.6,4.4-5.7,4.4h-12.2c-0.4,0-0.7-0.2-0.7-0.5v-70.6c0-0.2,0.1-0.4,0.3-0.4h10.9c4.2,0,7.5,2.6,7.5,5.7v17.6
					c9.2,0,14.9-0.2,17.2-0.4c4.4-0.5,7.9-2.1,10.5-4.6c2.6-2.5,3.8-5.9,3.8-10c0-4-1.1-7.2-3.3-9.7c-2.2-2.5-5.5-4-9.8-4.5
					c-2.6-0.3-10-0.4-22.2-0.4h-8.5c-4,0-7.7-2-9.8-5.4l-6.2-9.9c-1.7-2.7,0.2-6.1,3.4-6.1h31.6c10.2,0,17.8,0.4,22.8,1.3
					c5,0.8,9.5,2.6,13.4,5.3c3.9,2.7,7.2,6.3,9.9,10.8c2.6,4.5,3.9,9.5,3.9,15c0,6-1.6,11.6-4.9,16.6c-1.9,2.9-4.2,5.4-6.9,7.5
					c-2.2,1.7-1.9,5.2,0.6,6.5c4.5,2.3,8.3,5.3,11.1,9C773.3,202.7,775.4,209.1,775.4,216.5z"/>
				<g>
					<path fill="#19486A" d="M872,164.9c0,7.9-1.4,14.5-4.3,19.9c-2.8,5.4-6.5,9.6-10.9,12.6c-4.4,3.1-8.9,5.1-13.4,6.1
						c-6.2,1.2-15.1,1.8-26.8,1.8h-3.1v19.2h0v22.9c0,3.5-2.8,6.3-6.3,6.3h-13.4c-3.4,0-6.2-2.8-6.2-6.2v-59.9c0-2.2,1.8-4,4-4h22.2
						c10.2,0,17-0.7,20.5-2c3.4-1.3,6.1-3.4,8.1-6.3c2-2.8,2.9-6.2,2.9-9.9c0-4.7-1.4-8.5-4.1-11.6c-2.7-3-6.2-4.9-10.4-5.7
						c-3.1-0.6-9.3-0.9-18.6-0.9h-18.6c-3.8,0-7.3-1.9-9.3-5.1l-3.8-6.1l-2.7-4.3c-1.7-2.7,0.2-6.1,3.4-6.1l28.3,0
						c0.1,0,0.2,0,0.3,0l5.5,0c15.7,0,26,0.6,30.8,1.9c7.4,1.9,13.5,6.1,18.5,12.6C869.5,146.4,872,154.7,872,164.9z"/>
				</g>
			</g>
		</g>
	</g>
	<g>
		<g>
			<path fill="#19486A" d="M618.5,400.8c0,2.1-0.3,4-0.9,5.7c-0.6,1.7-1.4,3.2-2.4,4.5c-1,1.3-2.2,2.4-3.6,3.4
				c-1.4,0.9-3,1.7-4.7,2.3c-1.7,0.6-3.5,1.1-5.4,1.3c-1.9,0.3-4.1,0.4-6.4,0.4h-15.6c-1,0-1.8-0.3-2.5-0.9c-0.7-0.6-1-1.6-1-2.9
				v-51.2c0-1.3,0.3-2.3,1-2.9c0.7-0.6,1.5-0.9,2.5-0.9h14.8c3.6,0,6.6,0.3,9.1,0.9c2.5,0.6,4.6,1.5,6.3,2.7c1.7,1.2,3,2.8,3.9,4.7
				c0.9,1.9,1.4,4.1,1.4,6.6c0,1.4-0.2,2.8-0.5,4c-0.4,1.3-0.9,2.4-1.6,3.4c-0.7,1-1.6,1.9-2.6,2.7c-1,0.8-2.2,1.4-3.5,1.9
				c1.7,0.3,3.2,0.8,4.6,1.6c1.4,0.8,2.6,1.7,3.7,2.9c1,1.2,1.9,2.6,2.5,4.2C618.2,397,618.5,398.8,618.5,400.8z M603.1,376
				c0-1.2-0.2-2.2-0.5-3.2c-0.4-0.9-0.9-1.7-1.6-2.3c-0.7-0.6-1.6-1.1-2.7-1.4c-1.1-0.3-2.6-0.5-4.4-0.5h-6v15.2h6.7
				c1.7,0,3.1-0.2,4.1-0.6c1-0.4,1.9-1,2.6-1.7c0.7-0.7,1.2-1.5,1.5-2.5C602.9,378.1,603.1,377.1,603.1,376z M606.1,401.2
				c0-1.4-0.2-2.6-0.7-3.7c-0.5-1.1-1.1-2-2-2.7c-0.9-0.7-2-1.3-3.4-1.7c-1.4-0.4-3.1-0.6-5.3-0.6h-7.1v16.7h8.6
				c1.7,0,3.1-0.2,4.2-0.5c1.1-0.3,2.1-0.9,3-1.5c0.8-0.7,1.5-1.5,2-2.5C605.9,403.6,606.1,402.5,606.1,401.2z"/>
			<path fill="#19486A" d="M639.7,362.6c0,2.3-0.5,3.9-1.4,4.8c-0.9,0.9-2.7,1.3-5.2,1.3c-2.6,0-4.3-0.4-5.2-1.3
				c-0.9-0.8-1.3-2.4-1.3-4.6c0-2.3,0.5-3.9,1.4-4.8c0.9-0.9,2.7-1.3,5.2-1.3c2.5,0,4.3,0.4,5.2,1.3
				C639.3,358.9,639.7,360.4,639.7,362.6z M638.8,416.8c0,0.3-0.1,0.6-0.3,0.8c-0.2,0.2-0.5,0.4-0.9,0.6c-0.4,0.2-1,0.3-1.7,0.3
				c-0.7,0.1-1.6,0.1-2.8,0.1c-1.1,0-2,0-2.8-0.1c-0.7-0.1-1.3-0.2-1.7-0.3c-0.4-0.2-0.7-0.3-0.9-0.6c-0.2-0.2-0.3-0.5-0.3-0.8
				v-40.4c0-0.3,0.1-0.6,0.3-0.8c0.2-0.2,0.5-0.4,0.9-0.6c0.4-0.2,1-0.3,1.7-0.4c0.7-0.1,1.6-0.1,2.8-0.1c1.1,0,2,0,2.8,0.1
				c0.7,0.1,1.3,0.2,1.7,0.4c0.4,0.2,0.7,0.4,0.9,0.6c0.2,0.2,0.3,0.5,0.3,0.8V416.8z"/>
			<path fill="#19486A" d="M686.7,379.2c0,1.5-0.2,2.5-0.5,3.2c-0.3,0.7-0.7,1-1.2,1h-4.8c0.7,0.7,1.1,1.6,1.4,2.5s0.4,1.9,0.4,2.9
				c0,2.4-0.4,4.5-1.2,6.3c-0.8,1.8-1.9,3.4-3.4,4.6c-1.5,1.3-3.2,2.2-5.3,2.9c-2.1,0.7-4.4,1-6.9,1c-1.3,0-2.5-0.2-3.7-0.5
				s-2.1-0.7-2.7-1.1c-0.4,0.4-0.7,0.9-1,1.4c-0.3,0.5-0.4,1.2-0.4,1.8c0,0.9,0.4,1.6,1.2,2.2c0.8,0.6,1.9,0.9,3.2,0.9l9.8,0.4
				c2.3,0.1,4.3,0.4,6.2,1c1.8,0.6,3.3,1.3,4.5,2.4c1.2,1,2.2,2.2,2.8,3.7c0.7,1.4,1,3,1,4.9c0,2-0.4,3.9-1.3,5.7
				c-0.9,1.8-2.2,3.3-3.9,4.6c-1.8,1.3-4,2.3-6.6,3.1c-2.6,0.8-5.7,1.1-9.3,1.1c-3.4,0-6.4-0.3-8.8-0.8c-2.4-0.5-4.4-1.3-6-2.3
				c-1.6-1-2.7-2.1-3.4-3.5c-0.7-1.3-1.1-2.8-1.1-4.4c0-1,0.1-2,0.4-2.9c0.3-0.9,0.6-1.8,1.1-2.6c0.5-0.8,1.1-1.6,1.8-2.4
				c0.7-0.8,1.6-1.5,2.5-2.2c-1.3-0.7-2.3-1.6-3-2.8c-0.7-1.2-1.1-2.5-1.1-3.9c0-1.8,0.4-3.4,1.2-4.9c0.8-1.5,1.9-2.8,3.2-4
				c-1.1-1.1-1.9-2.3-2.5-3.8c-0.6-1.5-1-3.3-1-5.5c0-2.4,0.4-4.5,1.2-6.3c0.8-1.9,2-3.4,3.5-4.7c1.5-1.3,3.3-2.3,5.3-3
				c2.1-0.7,4.3-1,6.8-1c1.3,0,2.5,0.1,3.7,0.2c1.2,0.2,2.2,0.4,3.2,0.6H685c0.5,0,0.9,0.3,1.2,1
				C686.6,376.5,686.7,377.6,686.7,379.2z M674.7,421c0-1.4-0.5-2.4-1.6-3.1c-1.1-0.7-2.6-1.1-4.5-1.2l-8.1-0.2
				c-0.8,0.6-1.4,1.1-1.9,1.7c-0.5,0.5-0.8,1-1.1,1.5c-0.3,0.5-0.5,1-0.6,1.4c-0.1,0.5-0.1,0.9-0.1,1.4c0,1.5,0.8,2.7,2.3,3.4
				c1.5,0.8,3.7,1.2,6.5,1.2c1.7,0,3.2-0.2,4.4-0.5c1.2-0.3,2.1-0.8,2.9-1.4c0.7-0.6,1.2-1.2,1.5-1.9
				C674.6,422.6,674.7,421.8,674.7,421z M672.1,388.7c0-2.2-0.6-3.9-1.8-5.1c-1.2-1.2-2.9-1.8-5.1-1.8c-1.1,0-2.1,0.2-3,0.6
				c-0.8,0.4-1.6,0.9-2.1,1.5c-0.6,0.7-1,1.4-1.2,2.3c-0.3,0.9-0.4,1.8-0.4,2.7c0,2.1,0.6,3.7,1.8,4.9c1.2,1.2,2.9,1.8,5,1.8
				c1.1,0,2.1-0.2,3-0.5c0.8-0.4,1.5-0.9,2.1-1.5c0.6-0.6,1-1.4,1.3-2.2S672.1,389.6,672.1,388.7z"/>
			<path fill="#19486A" d="M756.2,377.5c0,3.3-0.5,6.2-1.5,8.8c-1,2.5-2.5,4.7-4.5,6.4s-4.4,3.1-7.2,4c-2.9,0.9-6.2,1.4-10.1,1.4
				h-4.9v18.7c0,0.3-0.1,0.6-0.3,0.8c-0.2,0.2-0.5,0.4-1,0.6c-0.5,0.2-1.1,0.3-1.8,0.4c-0.8,0.1-1.7,0.1-2.9,0.1
				c-1.2,0-2.1,0-2.9-0.1c-0.8-0.1-1.4-0.2-1.8-0.4c-0.5-0.2-0.8-0.3-1-0.6c-0.2-0.2-0.3-0.5-0.3-0.8v-52.8c0-1.4,0.4-2.5,1.1-3.2
				c0.7-0.7,1.7-1.1,2.9-1.1h13.8c1.4,0,2.7,0.1,4,0.2c1.3,0.1,2.8,0.3,4.5,0.7c1.8,0.3,3.5,1,5.3,1.9c1.8,0.9,3.3,2.1,4.6,3.6
				c1.3,1.4,2.2,3.1,2.9,5C755.9,372.9,756.2,375.1,756.2,377.5z M743.7,378.3c0-2.1-0.4-3.8-1.1-5.1c-0.7-1.3-1.6-2.3-2.7-2.9
				c-1.1-0.6-2.2-1-3.3-1.2c-1.2-0.2-2.4-0.2-3.6-0.2h-5.1v19.9h5.4c1.9,0,3.5-0.3,4.8-0.8c1.3-0.5,2.3-1.2,3.2-2.2
				c0.8-0.9,1.4-2,1.9-3.3C743.5,381.3,743.7,379.9,743.7,378.3z"/>
			<path fill="#19486A" d="M803.2,416.8c0,0.3-0.1,0.6-0.2,0.8c-0.2,0.2-0.4,0.4-0.8,0.6c-0.4,0.2-0.9,0.3-1.5,0.3s-1.4,0.1-2.3,0.1
				c-1,0-1.8,0-2.4-0.1c-0.6-0.1-1.1-0.2-1.5-0.3c-0.4-0.2-0.6-0.3-0.8-0.6c-0.2-0.2-0.2-0.5-0.2-0.8v-4.7c-2.2,2.4-4.5,4.2-6.8,5.4
				c-2.3,1.2-4.7,1.8-7.2,1.8c-2.8,0-5.1-0.5-7-1.4c-1.9-0.9-3.4-2.1-4.6-3.7c-1.2-1.6-2-3.4-2.5-5.5c-0.5-2.1-0.7-4.7-0.7-7.7
				v-24.8c0-0.3,0.1-0.6,0.3-0.8c0.2-0.2,0.5-0.4,0.9-0.6c0.4-0.2,1-0.3,1.8-0.3c0.7-0.1,1.7-0.1,2.7-0.1c1.1,0,2,0,2.8,0.1
				s1.3,0.2,1.7,0.3c0.4,0.2,0.7,0.3,0.9,0.6c0.2,0.2,0.3,0.5,0.3,0.8v22.9c0,2.1,0.1,3.7,0.4,4.9c0.3,1.1,0.7,2.1,1.2,2.9
				c0.6,0.8,1.3,1.4,2.1,1.9c0.9,0.4,1.9,0.7,3,0.7c1.5,0,2.9-0.5,4.4-1.6c1.5-1.1,3-2.6,4.7-4.6v-26.9c0-0.3,0.1-0.6,0.2-0.8
				c0.2-0.2,0.5-0.4,0.9-0.6c0.4-0.2,1-0.3,1.7-0.3c0.7-0.1,1.6-0.1,2.8-0.1s2,0,2.8,0.1s1.3,0.2,1.7,0.3c0.4,0.2,0.7,0.3,0.9,0.6
				c0.2,0.2,0.3,0.5,0.3,0.8V416.8z"/>
			<path fill="#19486A" d="M853.3,416.8c0,0.3-0.1,0.6-0.3,0.8c-0.2,0.2-0.5,0.4-0.9,0.6c-0.4,0.2-1,0.3-1.7,0.3
				c-0.7,0.1-1.7,0.1-2.7,0.1c-1.1,0-2.1,0-2.8-0.1c-0.7-0.1-1.3-0.2-1.7-0.3c-0.4-0.2-0.7-0.3-0.9-0.6c-0.2-0.2-0.3-0.5-0.3-0.8
				v-23.1c0-2-0.1-3.5-0.4-4.6c-0.3-1.1-0.7-2.1-1.2-2.9c-0.5-0.8-1.2-1.4-2.1-1.9c-0.9-0.4-1.9-0.7-3-0.7c-1.5,0-2.9,0.5-4.4,1.6
				c-1.5,1.1-3,2.6-4.6,4.6v26.9c0,0.3-0.1,0.6-0.3,0.8c-0.2,0.2-0.5,0.4-0.9,0.6c-0.4,0.2-1,0.3-1.7,0.3c-0.7,0.1-1.6,0.1-2.8,0.1
				c-1.1,0-2,0-2.8-0.1c-0.7-0.1-1.3-0.2-1.7-0.3c-0.4-0.2-0.7-0.3-0.9-0.6c-0.2-0.2-0.3-0.5-0.3-0.8v-40.5c0-0.3,0.1-0.6,0.2-0.8
				c0.2-0.2,0.4-0.4,0.8-0.6c0.4-0.2,0.9-0.3,1.5-0.3s1.4-0.1,2.3-0.1c1,0,1.8,0,2.4,0.1c0.6,0.1,1.1,0.2,1.5,0.3
				c0.3,0.2,0.6,0.3,0.7,0.6c0.2,0.2,0.2,0.5,0.2,0.8v4.7c2.2-2.4,4.5-4.2,6.8-5.4c2.3-1.2,4.7-1.8,7.2-1.8c2.8,0,5.1,0.5,7,1.4
				c1.9,0.9,3.4,2.1,4.6,3.7c1.2,1.6,2,3.4,2.5,5.5c0.5,2.1,0.8,4.6,0.8,7.5V416.8z"/>
			<path fill="#19486A" d="M887.6,412.8c0,1.3-0.1,2.4-0.2,3.1c-0.2,0.7-0.4,1.2-0.7,1.5c-0.3,0.3-0.7,0.5-1.2,0.8
				c-0.5,0.2-1.2,0.4-1.9,0.6c-0.7,0.2-1.5,0.3-2.3,0.4c-0.8,0.1-1.7,0.1-2.5,0.1c-2.3,0-4.2-0.3-5.9-0.9c-1.7-0.6-3-1.5-4.1-2.7
				c-1.1-1.2-1.9-2.7-2.4-4.5c-0.5-1.8-0.8-4-0.8-6.4v-20.7h-4.9c-0.6,0-1-0.4-1.3-1.1c-0.3-0.7-0.5-1.9-0.5-3.6
				c0-0.9,0-1.6,0.1-2.2c0.1-0.6,0.2-1.1,0.3-1.4c0.2-0.3,0.3-0.6,0.6-0.7c0.2-0.2,0.5-0.2,0.8-0.2h4.8v-9c0-0.3,0.1-0.6,0.2-0.8
				c0.2-0.2,0.5-0.4,0.9-0.6c0.4-0.2,1-0.3,1.8-0.4c0.7-0.1,1.7-0.1,2.7-0.1c1.1,0,2.1,0,2.8,0.1s1.3,0.2,1.7,0.4
				c0.4,0.2,0.7,0.4,0.9,0.6c0.2,0.2,0.3,0.5,0.3,0.8v9h8.8c0.3,0,0.6,0.1,0.8,0.2c0.2,0.2,0.4,0.4,0.6,0.7c0.2,0.3,0.3,0.8,0.3,1.4
				c0.1,0.6,0.1,1.3,0.1,2.2c0,1.7-0.2,2.9-0.5,3.6c-0.3,0.7-0.7,1.1-1.3,1.1H877v19c0,2.2,0.3,3.9,1,5c0.7,1.1,1.9,1.7,3.7,1.7
				c0.6,0,1.1-0.1,1.6-0.2c0.5-0.1,0.9-0.2,1.3-0.4c0.4-0.1,0.7-0.3,1-0.4c0.3-0.1,0.5-0.2,0.7-0.2c0.2,0,0.4,0.1,0.5,0.2
				c0.2,0.1,0.3,0.3,0.4,0.6c0.1,0.3,0.2,0.7,0.2,1.3C887.6,411.3,887.6,412,887.6,412.8z"/>
			<path fill="#19486A" d="M935.9,396.2c0,3.4-0.5,6.6-1.4,9.4c-0.9,2.8-2.3,5.3-4.1,7.4c-1.8,2.1-4.2,3.6-6.9,4.8
				c-2.8,1.1-6,1.7-9.8,1.7c-3.6,0-6.7-0.5-9.4-1.5c-2.7-1-4.9-2.5-6.6-4.4c-1.8-1.9-3.1-4.3-3.9-7c-0.8-2.8-1.3-6-1.3-9.5
				c0-3.4,0.5-6.6,1.4-9.5c0.9-2.9,2.3-5.3,4.2-7.4c1.8-2,4.2-3.6,6.9-4.7c2.8-1.1,6-1.7,9.7-1.7c3.6,0,6.8,0.5,9.4,1.5
				c2.7,1,4.9,2.4,6.6,4.3c1.7,1.9,3,4.3,3.9,7C935.5,389.4,935.9,392.6,935.9,396.2z M924.2,396.6c0-2-0.2-3.8-0.5-5.5
				c-0.3-1.7-0.9-3.1-1.6-4.4c-0.8-1.2-1.8-2.2-3-2.9c-1.3-0.7-2.8-1-4.7-1c-1.7,0-3.2,0.3-4.4,0.9c-1.3,0.6-2.3,1.5-3.1,2.7
				c-0.8,1.2-1.4,2.6-1.8,4.3c-0.4,1.7-0.6,3.6-0.6,5.7c0,2,0.2,3.8,0.5,5.5c0.3,1.7,0.9,3.1,1.6,4.4c0.7,1.2,1.7,2.2,3,2.9
				c1.3,0.7,2.8,1,4.7,1c1.7,0,3.2-0.3,4.5-0.9c1.3-0.6,2.3-1.5,3.1-2.7s1.4-2.6,1.8-4.3C924,400.7,924.2,398.8,924.2,396.6z"/>
			<path fill="#19486A" d="M973.5,405.4c0,2.3-0.4,4.3-1.3,6.1c-0.9,1.8-2.1,3.2-3.7,4.4c-1.6,1.2-3.4,2.1-5.6,2.7
				c-2.1,0.6-4.5,0.9-7,0.9c-1.5,0-3-0.1-4.3-0.3c-1.4-0.2-2.6-0.5-3.7-0.9c-1.1-0.3-2-0.7-2.7-1.1c-0.7-0.4-1.3-0.7-1.6-1
				c-0.3-0.3-0.6-0.8-0.8-1.5c-0.2-0.7-0.3-1.7-0.3-3c0-0.9,0-1.6,0.1-2.1c0.1-0.5,0.2-1,0.3-1.3c0.1-0.3,0.3-0.5,0.5-0.6
				c0.2-0.1,0.4-0.2,0.7-0.2c0.3,0,0.8,0.2,1.5,0.6c0.7,0.4,1.5,0.8,2.4,1.2c1,0.5,2.1,0.9,3.4,1.3c1.3,0.4,2.7,0.6,4.4,0.6
				c1,0,1.9-0.1,2.7-0.3c0.8-0.2,1.5-0.5,2.1-0.9c0.6-0.4,1-0.9,1.3-1.5c0.3-0.6,0.5-1.3,0.5-2.1c0-0.9-0.3-1.7-0.8-2.3
				c-0.6-0.7-1.3-1.2-2.2-1.7c-0.9-0.5-2-0.9-3.1-1.4c-1.2-0.4-2.4-0.9-3.6-1.4c-1.2-0.5-2.4-1.1-3.6-1.8c-1.2-0.7-2.2-1.5-3.1-2.5
				c-0.9-1-1.7-2.1-2.2-3.5c-0.6-1.4-0.8-3-0.8-4.9c0-1.9,0.4-3.7,1.1-5.3c0.8-1.6,1.8-3,3.3-4.2c1.4-1.1,3.2-2,5.2-2.7
				c2-0.6,4.3-1,6.9-1c1.3,0,2.5,0.1,3.7,0.3c1.2,0.2,2.3,0.4,3.2,0.7c1,0.3,1.8,0.6,2.5,0.9c0.7,0.3,1.1,0.6,1.4,0.8
				c0.3,0.2,0.5,0.5,0.6,0.7c0.1,0.2,0.2,0.5,0.3,0.8c0.1,0.3,0.1,0.7,0.2,1.2c0,0.5,0.1,1.1,0.1,1.7c0,0.8,0,1.5-0.1,2
				c0,0.5-0.1,0.9-0.2,1.2c-0.1,0.3-0.2,0.5-0.4,0.6c-0.2,0.1-0.4,0.2-0.6,0.2c-0.3,0-0.7-0.2-1.3-0.5c-0.6-0.3-1.3-0.7-2.2-1
				c-0.9-0.4-1.9-0.7-3-1c-1.1-0.3-2.4-0.5-3.9-0.5c-1,0-1.9,0.1-2.7,0.3c-0.8,0.2-1.4,0.5-1.9,0.9c-0.5,0.4-0.8,0.9-1.1,1.4
				c-0.2,0.5-0.4,1.1-0.4,1.7c0,0.9,0.3,1.7,0.9,2.4c0.6,0.6,1.3,1.2,2.3,1.7c0.9,0.5,2,0.9,3.2,1.4c1.2,0.4,2.4,0.9,3.6,1.4
				c1.2,0.5,2.4,1.1,3.6,1.7c1.2,0.7,2.3,1.5,3.2,2.5c0.9,1,1.7,2.1,2.3,3.5C973.2,401.9,973.5,403.5,973.5,405.4z"/>
		</g>
	</g>
	<g>
		<circle fill="#F0D632" cx="273.8" cy="190.5" r="126.1"/>
		<g>
			<path fill="#19486A" d="M334.5,137.6c-2.2-3.3-5.9-5.3-9.9-5.3h-73.8c-4.3,0-8.3,2.2-10.6,5.7l-12.7,19.4h119.9L334.5,137.6z"/>
			<path fill="#19486A" d="M363.1,191l-16.8,41.4l-7.1,17.5c-1.9,4.6-6.4,7.7-11.4,7.7h-8.1c0.4,1.4,0.7,2.8,0.7,4.3
				c0,7.6-6.2,13.8-13.8,13.8c-7.6,0-13.8-6.2-13.8-13.8c0-1.5,0.2-2.9,0.7-4.3H279c0.4,1.4,0.7,2.8,0.7,4.3
				c0,7.6-6.2,13.8-13.8,13.8c-7.6,0-13.8-6.2-13.8-13.8c0-1.5,0.2-2.9,0.7-4.3h-5c-5,0-9.5-3-11.4-7.6l-7.3-17.5l-42.9-102.6
				c-1.8-4.3,0.1-9.2,4.3-11.2l8.4-4c4.5-2.1,9.9-0.1,11.8,4.5l44,105.7c1.9,4.6,6.4,7.6,11.4,7.6h43.3c5.1,0,9.6-3.1,11.5-7.7
				l7-17.2h-44.7c-4.1,0-7.8-2.5-9.4-6.3l-4.9-11.7c-1.4-3.3,1.1-7,4.7-7H338l9.9-24.4l14.1,21.5C364.2,182.9,364.6,187.2,363.1,191
				z"/>
		</g>
		<g>
			<path fill="#19486A" d="M70,407.1c0,0.8,0,1.4-0.1,1.9c0,0.5-0.1,1-0.2,1.4c-0.1,0.4-0.2,0.7-0.4,1c-0.2,0.3-0.4,0.6-0.7,0.9
				c-0.3,0.3-1,0.8-1.9,1.3c-1,0.5-2.1,1.1-3.5,1.6c-1.4,0.5-2.9,0.9-4.7,1.2c-1.8,0.3-3.7,0.5-5.7,0.5c-4,0-7.7-0.6-10.9-1.9
				c-3.2-1.2-6-3.1-8.3-5.6c-2.3-2.5-4-5.5-5.2-9.2c-1.2-3.7-1.8-8-1.8-12.9c0-5,0.7-9.4,2-13.3c1.3-3.9,3.2-7.1,5.6-9.8
				c2.4-2.6,5.3-4.6,8.6-6c3.3-1.4,7-2,11.1-2c1.6,0,3.2,0.1,4.7,0.4c1.5,0.3,2.9,0.6,4.2,1.1c1.3,0.4,2.4,0.9,3.5,1.5
				c1,0.6,1.7,1.1,2.2,1.5c0.4,0.4,0.7,0.7,0.8,1c0.2,0.3,0.3,0.6,0.4,1c0.1,0.4,0.2,0.9,0.2,1.5c0,0.6,0.1,1.3,0.1,2.1
				c0,0.9,0,1.7-0.1,2.3c-0.1,0.6-0.2,1.2-0.3,1.5c-0.2,0.4-0.3,0.7-0.5,0.9c-0.2,0.2-0.5,0.3-0.7,0.3c-0.5,0-1-0.3-1.7-0.8
				c-0.7-0.5-1.6-1.1-2.7-1.8c-1.1-0.6-2.4-1.2-3.9-1.8c-1.5-0.5-3.4-0.8-5.5-0.8c-2.3,0-4.4,0.5-6.2,1.4c-1.8,1-3.4,2.3-4.7,4.1
				c-1.3,1.8-2.3,3.9-2.9,6.4c-0.7,2.5-1,5.3-1,8.5c0,3.4,0.4,6.4,1.1,9c0.7,2.5,1.7,4.6,3,6.2c1.3,1.6,2.9,2.9,4.8,3.7
				c1.9,0.8,4,1.2,6.3,1.2c2.1,0,3.9-0.2,5.5-0.7c1.5-0.5,2.9-1.1,4-1.7c1.1-0.6,2-1.1,2.7-1.6c0.7-0.5,1.3-0.7,1.7-0.7
				c0.3,0,0.5,0.1,0.7,0.2c0.2,0.1,0.3,0.4,0.5,0.7c0.1,0.4,0.2,0.9,0.3,1.5C69.9,405.1,70,406,70,407.1z"/>
			<path fill="#19486A" d="M103.9,377.7c0,1.1,0,2-0.1,2.7c-0.1,0.7-0.2,1.2-0.3,1.6c-0.1,0.4-0.3,0.7-0.5,0.8
				c-0.2,0.2-0.4,0.2-0.7,0.2c-0.2,0-0.5-0.1-0.8-0.2c-0.3-0.1-0.6-0.2-1-0.3c-0.4-0.1-0.8-0.2-1.2-0.3c-0.5-0.1-1-0.2-1.5-0.2
				c-0.6,0-1.3,0.1-1.9,0.4c-0.6,0.3-1.3,0.7-2,1.2c-0.7,0.5-1.4,1.3-2.1,2.2c-0.7,0.9-1.5,2-2.4,3.4v25.2c0,0.3-0.1,0.6-0.3,0.8
				c-0.2,0.2-0.5,0.4-0.9,0.6c-0.4,0.2-1,0.3-1.7,0.3s-1.6,0.1-2.8,0.1c-1.1,0-2,0-2.8-0.1s-1.3-0.2-1.7-0.3
				c-0.4-0.2-0.7-0.3-0.9-0.6c-0.2-0.2-0.3-0.5-0.3-0.8V374c0-0.3,0.1-0.6,0.2-0.8c0.2-0.2,0.4-0.4,0.8-0.6c0.4-0.2,0.9-0.3,1.5-0.3
				c0.6-0.1,1.4-0.1,2.3-0.1c1,0,1.8,0,2.4,0.1c0.6,0.1,1.1,0.2,1.5,0.3c0.3,0.2,0.6,0.3,0.7,0.6c0.2,0.2,0.2,0.5,0.2,0.8v5
				c1.1-1.5,2.1-2.8,3-3.7c0.9-1,1.8-1.8,2.7-2.3c0.8-0.6,1.7-1,2.5-1.2c0.8-0.2,1.7-0.3,2.5-0.3c0.4,0,0.8,0,1.3,0.1
				c0.5,0,0.9,0.1,1.4,0.2c0.5,0.1,0.9,0.2,1.3,0.4c0.4,0.1,0.6,0.3,0.8,0.4c0.2,0.2,0.3,0.3,0.4,0.5c0.1,0.2,0.1,0.4,0.2,0.7
				c0.1,0.3,0.1,0.8,0.1,1.4C103.8,375.8,103.9,376.7,103.9,377.7z"/>
			<path fill="#19486A" d="M147.3,393c0,1.4-0.3,2.4-0.9,3.1c-0.6,0.7-1.5,1-2.6,1h-24.6c0,1.7,0.2,3.3,0.6,4.7
				c0.4,1.4,1.1,2.6,2,3.6c0.9,1,2,1.7,3.4,2.2c1.4,0.5,3.1,0.8,5.1,0.8c2,0,3.8-0.1,5.3-0.4c1.5-0.3,2.8-0.6,3.9-1
				c1.1-0.3,2-0.7,2.7-1c0.7-0.3,1.3-0.4,1.8-0.4c0.3,0,0.5,0.1,0.7,0.2c0.2,0.1,0.3,0.3,0.5,0.6c0.1,0.3,0.2,0.7,0.2,1.2
				c0,0.5,0.1,1.1,0.1,1.9c0,0.7,0,1.2,0,1.7c0,0.5-0.1,0.9-0.1,1.2c-0.1,0.3-0.2,0.6-0.3,0.8c-0.1,0.2-0.3,0.4-0.5,0.7
				c-0.2,0.2-0.7,0.5-1.6,0.9c-0.9,0.4-2,0.7-3.4,1.1c-1.4,0.3-2.9,0.6-4.7,0.9c-1.8,0.3-3.6,0.4-5.6,0.4c-3.6,0-6.8-0.5-9.5-1.4
				c-2.7-0.9-5-2.3-6.8-4.1c-1.8-1.8-3.2-4.2-4.1-7c-0.9-2.8-1.3-6.1-1.3-9.9c0-3.6,0.5-6.8,1.4-9.7c0.9-2.9,2.3-5.3,4.1-7.4
				c1.8-2,4-3.5,6.5-4.6c2.6-1.1,5.4-1.6,8.6-1.6c3.4,0,6.3,0.5,8.7,1.5c2.4,1,4.4,2.4,5.9,4.2c1.5,1.8,2.7,3.9,3.4,6.3
				c0.7,2.4,1.1,5.1,1.1,7.9V393z M136.2,389.8c0.1-3.2-0.6-5.7-1.9-7.6c-1.4-1.8-3.5-2.7-6.4-2.7c-1.5,0-2.7,0.3-3.8,0.8
				c-1.1,0.5-2,1.3-2.7,2.2c-0.7,0.9-1.3,2-1.6,3.3c-0.4,1.3-0.6,2.6-0.7,4H136.2z"/>
			<path fill="#19486A" d="M195,414.5c0,0.3-0.1,0.6-0.2,0.8c-0.2,0.2-0.4,0.4-0.8,0.6c-0.4,0.2-0.9,0.3-1.5,0.3
				c-0.6,0.1-1.4,0.1-2.3,0.1c-1,0-1.8,0-2.4-0.1c-0.6-0.1-1.1-0.2-1.5-0.3c-0.4-0.2-0.7-0.3-0.8-0.6c-0.2-0.2-0.2-0.5-0.2-0.8V410
				c-2.1,2.2-4.3,4-6.6,5.2c-2.3,1.2-4.8,1.9-7.6,1.9c-3.1,0-5.7-0.6-7.8-1.8c-2.1-1.2-3.9-2.8-5.2-4.8c-1.3-2-2.3-4.4-2.9-7.1
				c-0.6-2.7-0.9-5.6-0.9-8.6c0-3.6,0.4-6.8,1.2-9.7c0.8-2.9,1.9-5.3,3.4-7.4c1.5-2,3.3-3.6,5.5-4.7c2.2-1.1,4.7-1.6,7.6-1.6
				c2.3,0,4.3,0.5,6.2,1.4c1.8,0.9,3.7,2.3,5.5,4.1v-21.9c0-0.3,0.1-0.6,0.2-0.8c0.2-0.2,0.5-0.4,0.9-0.6c0.4-0.2,1-0.3,1.7-0.4
				c0.7-0.1,1.6-0.1,2.8-0.1c1.1,0,2,0,2.8,0.1c0.7,0.1,1.3,0.2,1.7,0.4c0.4,0.2,0.7,0.4,0.9,0.6c0.2,0.2,0.3,0.5,0.3,0.8V414.5z
				 M183.7,387.4c-1.6-2.1-3.2-3.6-4.7-4.7c-1.5-1.1-3.1-1.6-4.7-1.6c-1.5,0-2.8,0.4-3.8,1.1c-1.1,0.7-1.9,1.7-2.6,3
				c-0.7,1.2-1.1,2.6-1.5,4.2c-0.3,1.5-0.5,3.1-0.5,4.7c0,1.7,0.1,3.3,0.4,4.9c0.3,1.6,0.7,3,1.3,4.3c0.6,1.3,1.4,2.3,2.5,3
				c1,0.8,2.3,1.1,3.9,1.1c0.8,0,1.6-0.1,2.3-0.3c0.7-0.2,1.5-0.6,2.3-1.1c0.8-0.5,1.6-1.2,2.4-2c0.8-0.8,1.7-1.9,2.7-3.1V387.4z"/>
			<path fill="#19486A" d="M218.8,360.3c0,2.3-0.5,3.9-1.4,4.8c-0.9,0.9-2.7,1.3-5.2,1.3c-2.6,0-4.3-0.4-5.2-1.3
				c-0.9-0.8-1.3-2.4-1.3-4.6c0-2.3,0.5-3.9,1.4-4.8c0.9-0.9,2.7-1.3,5.2-1.3c2.5,0,4.3,0.4,5.2,1.3
				C218.4,356.5,218.8,358.1,218.8,360.3z M218,414.5c0,0.3-0.1,0.6-0.3,0.8c-0.2,0.2-0.5,0.4-0.9,0.6c-0.4,0.2-1,0.3-1.7,0.3
				s-1.6,0.1-2.8,0.1c-1.1,0-2,0-2.8-0.1c-0.7-0.1-1.3-0.2-1.7-0.3c-0.4-0.2-0.7-0.3-0.9-0.6c-0.2-0.2-0.3-0.5-0.3-0.8v-40.4
				c0-0.3,0.1-0.6,0.3-0.8c0.2-0.2,0.5-0.4,0.9-0.6c0.4-0.2,1-0.3,1.7-0.4c0.7-0.1,1.6-0.1,2.8-0.1c1.1,0,2,0,2.8,0.1
				c0.7,0.1,1.3,0.2,1.7,0.4c0.4,0.2,0.7,0.4,0.9,0.6c0.2,0.2,0.3,0.5,0.3,0.8V414.5z"/>
			<path fill="#19486A" d="M270.7,407.1c0,0.8,0,1.4-0.1,1.9c0,0.5-0.1,1-0.2,1.4c-0.1,0.4-0.2,0.7-0.4,1c-0.2,0.3-0.4,0.6-0.7,0.9
				c-0.3,0.3-1,0.8-1.9,1.3c-1,0.5-2.1,1.1-3.5,1.6c-1.4,0.5-2.9,0.9-4.7,1.2c-1.8,0.3-3.7,0.5-5.7,0.5c-4,0-7.7-0.6-10.9-1.9
				c-3.2-1.2-6-3.1-8.3-5.6c-2.3-2.5-4-5.5-5.2-9.2c-1.2-3.7-1.8-8-1.8-12.9c0-5,0.7-9.4,2-13.3c1.3-3.9,3.2-7.1,5.6-9.8
				c2.4-2.6,5.3-4.6,8.6-6c3.3-1.4,7-2,11.1-2c1.6,0,3.2,0.1,4.7,0.4c1.5,0.3,2.9,0.6,4.2,1.1c1.3,0.4,2.4,0.9,3.5,1.5
				c1,0.6,1.7,1.1,2.2,1.5c0.4,0.4,0.7,0.7,0.8,1c0.2,0.3,0.3,0.6,0.4,1c0.1,0.4,0.2,0.9,0.2,1.5c0,0.6,0.1,1.3,0.1,2.1
				c0,0.9,0,1.7-0.1,2.3c-0.1,0.6-0.2,1.2-0.3,1.5c-0.2,0.4-0.3,0.7-0.5,0.9c-0.2,0.2-0.5,0.3-0.7,0.3c-0.5,0-1-0.3-1.7-0.8
				c-0.7-0.5-1.6-1.1-2.7-1.8c-1.1-0.6-2.4-1.2-3.9-1.8c-1.5-0.5-3.4-0.8-5.5-0.8c-2.3,0-4.4,0.5-6.2,1.4c-1.8,1-3.4,2.3-4.7,4.1
				c-1.3,1.8-2.3,3.9-2.9,6.4c-0.7,2.5-1,5.3-1,8.5c0,3.4,0.4,6.4,1.1,9c0.7,2.5,1.7,4.6,3,6.2c1.3,1.6,2.9,2.9,4.8,3.7
				c1.9,0.8,4,1.2,6.3,1.2c2.1,0,3.9-0.2,5.5-0.7c1.5-0.5,2.9-1.1,4-1.7c1.1-0.6,2-1.1,2.7-1.6c0.7-0.5,1.3-0.7,1.7-0.7
				c0.3,0,0.5,0.1,0.7,0.2c0.2,0.1,0.3,0.4,0.5,0.7c0.1,0.4,0.2,0.9,0.3,1.5C270.6,405.1,270.7,406,270.7,407.1z"/>
			<path fill="#19486A" d="M319.5,393.8c0,3.4-0.5,6.6-1.4,9.4c-0.9,2.8-2.3,5.3-4.1,7.4c-1.8,2.1-4.2,3.6-6.9,4.8
				c-2.8,1.1-6,1.7-9.8,1.7c-3.6,0-6.7-0.5-9.4-1.5s-4.9-2.5-6.6-4.4c-1.8-1.9-3.1-4.3-3.9-7c-0.8-2.8-1.3-6-1.3-9.5
				c0-3.4,0.5-6.6,1.4-9.5c0.9-2.9,2.3-5.3,4.2-7.4c1.8-2,4.2-3.6,6.9-4.7c2.8-1.1,6-1.7,9.7-1.7c3.6,0,6.8,0.5,9.4,1.5
				c2.7,1,4.9,2.4,6.6,4.3c1.7,1.9,3,4.3,3.9,7C319.1,387,319.5,390.2,319.5,393.8z M307.7,394.3c0-2-0.2-3.8-0.5-5.5
				c-0.3-1.7-0.9-3.1-1.6-4.4c-0.8-1.2-1.8-2.2-3-2.9c-1.3-0.7-2.8-1-4.7-1c-1.7,0-3.2,0.3-4.4,0.9c-1.3,0.6-2.3,1.5-3.1,2.7
				c-0.8,1.2-1.4,2.6-1.8,4.3c-0.4,1.7-0.6,3.6-0.6,5.7c0,2,0.2,3.8,0.5,5.5c0.3,1.7,0.9,3.1,1.6,4.4c0.7,1.2,1.7,2.2,3,2.9
				c1.3,0.7,2.8,1,4.7,1c1.7,0,3.2-0.3,4.5-0.9c1.3-0.6,2.3-1.5,3.1-2.7c0.8-1.2,1.4-2.6,1.8-4.3
				C307.5,398.3,307.7,396.4,307.7,394.3z"/>
			<path fill="#19486A" d="M392.9,414.5c0,0.3-0.1,0.6-0.3,0.8c-0.2,0.2-0.5,0.4-0.9,0.6c-0.4,0.2-1,0.3-1.7,0.3
				c-0.7,0.1-1.6,0.1-2.8,0.1c-1.2,0-2.1,0-2.8-0.1s-1.3-0.2-1.7-0.3c-0.4-0.2-0.7-0.3-0.9-0.6c-0.2-0.2-0.2-0.5-0.2-0.8v-24
				c0-1.4-0.1-2.6-0.4-3.7c-0.3-1.1-0.7-2.1-1.2-2.9c-0.5-0.8-1.2-1.4-2-1.9c-0.8-0.4-1.8-0.7-2.9-0.7c-1.4,0-2.7,0.5-4.1,1.6
				c-1.4,1.1-2.9,2.6-4.5,4.6v26.9c0,0.3-0.1,0.6-0.3,0.8c-0.2,0.2-0.5,0.4-0.9,0.6c-0.4,0.2-1,0.3-1.7,0.3
				c-0.7,0.1-1.6,0.1-2.7,0.1c-1.1,0-2,0-2.8-0.1c-0.7-0.1-1.3-0.2-1.7-0.3c-0.4-0.2-0.7-0.3-0.9-0.6c-0.2-0.2-0.3-0.5-0.3-0.8v-24
				c0-1.4-0.1-2.6-0.4-3.7c-0.3-1.1-0.6-2.1-1.2-2.9c-0.5-0.8-1.2-1.4-2-1.9c-0.8-0.4-1.8-0.7-2.9-0.7c-1.4,0-2.8,0.5-4.2,1.6
				c-1.4,1.1-2.9,2.6-4.5,4.6v26.9c0,0.3-0.1,0.6-0.3,0.8c-0.2,0.2-0.5,0.4-0.9,0.6c-0.4,0.2-1,0.3-1.7,0.3s-1.6,0.1-2.8,0.1
				c-1.1,0-2,0-2.8-0.1c-0.7-0.1-1.3-0.2-1.7-0.3c-0.4-0.2-0.7-0.3-0.9-0.6c-0.2-0.2-0.3-0.5-0.3-0.8V374c0-0.3,0.1-0.6,0.2-0.8
				c0.2-0.2,0.4-0.4,0.8-0.6c0.4-0.2,0.9-0.3,1.5-0.3c0.6-0.1,1.4-0.1,2.3-0.1c1,0,1.8,0,2.4,0.1c0.6,0.1,1.1,0.2,1.5,0.3
				c0.3,0.2,0.6,0.3,0.7,0.6c0.2,0.2,0.2,0.5,0.2,0.8v4.7c2.2-2.4,4.5-4.2,6.7-5.4c2.2-1.2,4.5-1.8,7-1.8c1.7,0,3.2,0.2,4.5,0.5
				c1.3,0.3,2.5,0.8,3.6,1.5c1,0.7,1.9,1.4,2.7,2.3c0.8,0.9,1.4,1.9,1.9,3c1.2-1.3,2.4-2.4,3.6-3.4c1.2-0.9,2.3-1.7,3.4-2.3
				c1.1-0.6,2.3-1,3.4-1.3s2.3-0.4,3.5-0.4c2.7,0,5,0.5,6.8,1.4c1.8,0.9,3.3,2.1,4.5,3.7c1.1,1.6,1.9,3.4,2.4,5.5
				c0.5,2.1,0.7,4.3,0.7,6.6V414.5z"/>
			<path fill="#19486A" d="M444.9,393.6c0,3.6-0.4,6.8-1.2,9.7c-0.8,2.9-1.9,5.3-3.4,7.4c-1.5,2-3.3,3.6-5.5,4.7
				c-2.2,1.1-4.7,1.6-7.6,1.6c-1.2,0-2.3-0.1-3.2-0.3c-1-0.2-1.9-0.6-2.9-1c-0.9-0.5-1.8-1.1-2.7-1.7s-1.8-1.5-2.8-2.5v19.1
				c0,0.3-0.1,0.6-0.3,0.8c-0.2,0.2-0.5,0.4-0.9,0.6c-0.4,0.2-1,0.3-1.7,0.4c-0.7,0.1-1.6,0.1-2.8,0.1c-1.1,0-2,0-2.8-0.1
				c-0.7-0.1-1.3-0.2-1.7-0.4c-0.4-0.2-0.7-0.4-0.9-0.6c-0.2-0.2-0.3-0.5-0.3-0.8V374c0-0.3,0.1-0.6,0.2-0.8
				c0.2-0.2,0.4-0.4,0.8-0.6c0.4-0.2,0.9-0.3,1.5-0.3c0.6-0.1,1.4-0.1,2.3-0.1c0.9,0,1.7,0,2.3,0.1c0.6,0.1,1.1,0.2,1.5,0.3
				c0.4,0.2,0.6,0.3,0.8,0.6c0.2,0.2,0.2,0.5,0.2,0.8v4.8c1.2-1.2,2.3-2.3,3.5-3.2c1.1-0.9,2.3-1.7,3.5-2.3c1.2-0.6,2.4-1.1,3.7-1.4
				c1.3-0.3,2.6-0.5,4-0.5c3,0,5.5,0.6,7.6,1.7c2.1,1.2,3.8,2.8,5.1,4.8c1.3,2,2.3,4.4,2.9,7.1C444.6,387.7,444.9,390.6,444.9,393.6
				z M433,394.4c0-1.7-0.1-3.4-0.4-5c-0.3-1.6-0.7-3-1.3-4.2c-0.6-1.2-1.4-2.2-2.5-3c-1-0.7-2.3-1.1-3.8-1.1c-0.8,0-1.5,0.1-2.2,0.3
				c-0.7,0.2-1.5,0.6-2.3,1.1c-0.8,0.5-1.6,1.2-2.4,2c-0.8,0.8-1.7,1.8-2.6,3V401c1.6,2,3.1,3.6,4.6,4.7c1.5,1.1,3,1.7,4.5,1.7
				c1.5,0,2.7-0.4,3.8-1.1c1-0.8,1.9-1.7,2.6-3c0.7-1.2,1.2-2.6,1.5-4.2C432.8,397.5,433,396,433,394.4z"/>
			<path fill="#19486A" d="M480,377.7c0,1.1,0,2-0.1,2.7c-0.1,0.7-0.2,1.2-0.3,1.6c-0.1,0.4-0.3,0.7-0.5,0.8
				c-0.2,0.2-0.4,0.2-0.7,0.2c-0.2,0-0.5-0.1-0.8-0.2c-0.3-0.1-0.6-0.2-1-0.3c-0.4-0.1-0.8-0.2-1.2-0.3c-0.5-0.1-1-0.2-1.5-0.2
				c-0.6,0-1.3,0.1-1.9,0.4c-0.6,0.3-1.3,0.7-2,1.2s-1.4,1.3-2.1,2.2c-0.7,0.9-1.5,2-2.4,3.4v25.2c0,0.3-0.1,0.6-0.3,0.8
				c-0.2,0.2-0.5,0.4-0.9,0.6c-0.4,0.2-1,0.3-1.7,0.3c-0.7,0.1-1.6,0.1-2.8,0.1c-1.1,0-2,0-2.8-0.1c-0.7-0.1-1.3-0.2-1.7-0.3
				c-0.4-0.2-0.7-0.3-0.9-0.6c-0.2-0.2-0.3-0.5-0.3-0.8V374c0-0.3,0.1-0.6,0.2-0.8c0.2-0.2,0.4-0.4,0.8-0.6c0.4-0.2,0.9-0.3,1.5-0.3
				c0.6-0.1,1.4-0.1,2.3-0.1c1,0,1.8,0,2.4,0.1c0.6,0.1,1.1,0.2,1.5,0.3c0.3,0.2,0.6,0.3,0.7,0.6c0.2,0.2,0.2,0.5,0.2,0.8v5
				c1.1-1.5,2.1-2.8,3-3.7c0.9-1,1.8-1.8,2.7-2.3c0.8-0.6,1.7-1,2.5-1.2c0.8-0.2,1.7-0.3,2.5-0.3c0.4,0,0.8,0,1.3,0.1
				c0.5,0,0.9,0.1,1.4,0.2c0.5,0.1,0.9,0.2,1.3,0.4c0.4,0.1,0.6,0.3,0.8,0.4c0.2,0.2,0.3,0.3,0.4,0.5c0.1,0.2,0.1,0.4,0.2,0.7
				c0.1,0.3,0.1,0.8,0.1,1.4C480,375.8,480,376.7,480,377.7z"/>
			<path fill="#19486A" d="M519.5,414.6c0,0.4-0.2,0.8-0.5,1c-0.3,0.2-0.8,0.4-1.4,0.5c-0.7,0.1-1.6,0.2-2.9,0.2
				c-1.4,0-2.4-0.1-3-0.2c-0.6-0.1-1.1-0.3-1.3-0.5c-0.3-0.2-0.4-0.6-0.4-1v-3.2c-1.7,1.8-3.6,3.2-5.7,4.2c-2.1,1-4.5,1.5-7.1,1.5
				c-2.1,0-4.1-0.3-5.9-0.8c-1.8-0.6-3.4-1.4-4.7-2.5c-1.3-1.1-2.3-2.5-3.1-4.1c-0.7-1.6-1.1-3.5-1.1-5.7c0-2.4,0.5-4.4,1.4-6.1
				c0.9-1.7,2.3-3.2,4.1-4.3c1.8-1.1,4.1-2,6.8-2.5c2.7-0.5,5.9-0.8,9.5-0.8h3.9v-2.5c0-1.3-0.1-2.4-0.4-3.3c-0.3-1-0.7-1.7-1.3-2.4
				c-0.6-0.6-1.4-1.1-2.4-1.4c-1-0.3-2.2-0.5-3.7-0.5c-1.9,0-3.6,0.2-5.1,0.6c-1.5,0.4-2.8,0.9-4,1.4c-1.2,0.5-2.1,1-2.9,1.4
				c-0.8,0.4-1.4,0.6-1.9,0.6c-0.3,0-0.6-0.1-0.9-0.3c-0.3-0.2-0.5-0.5-0.6-0.9c-0.2-0.4-0.3-0.9-0.4-1.5c-0.1-0.6-0.1-1.2-0.1-1.9
				c0-0.9,0.1-1.7,0.2-2.2c0.2-0.5,0.4-1,0.9-1.5c0.4-0.4,1.2-0.9,2.2-1.5c1.1-0.5,2.3-1,3.7-1.5c1.4-0.5,3-0.8,4.7-1.1
				c1.7-0.3,3.4-0.4,5.2-0.4c3.2,0,5.9,0.3,8.1,0.9s4.1,1.6,5.6,2.9c1.5,1.3,2.5,2.9,3.2,5c0.7,2,1,4.4,1,7.2V414.6z M508.3,397.3
				h-4.4c-1.8,0-3.4,0.1-4.7,0.4c-1.3,0.3-2.4,0.7-3.2,1.2c-0.8,0.5-1.4,1.2-1.8,2c-0.4,0.8-0.6,1.7-0.6,2.7c0,1.7,0.5,3,1.6,4
				c1.1,1,2.6,1.5,4.5,1.5c1.6,0,3.1-0.4,4.4-1.2c1.3-0.8,2.7-2,4.1-3.6V397.3z"/>
		</g>
	</g>
</g>
</svg>
