<?xml version="1.0" encoding="utf-8"?>
<!-- Generator: Adobe Illustrator 21.0.2, SVG Export Plug-In . SVG Version: 6.00 Build 0)  -->
<svg version="1.1" id="Layer_1" xmlns="http://www.w3.org/2000/svg" xmlns:xlink="http://www.w3.org/1999/xlink" x="0px" y="0px"
	 viewBox="0 0 1304.9 243.5" style="enable-background:new 0 0 1304.9 243.5;" xml:space="preserve">
<style type="text/css">
	.st0{fill:#F2D81D;}
	.st1{fill:#385E8C;}
</style>
<title>foot</title>
<path class="st0" d="M652.5,19c12.5,0,24.9,0.1,37.4,0.2s24.9,0.3,37.3,0.6c12.4,0.3,24.8,0.6,37.1,1s24.6,0.9,36.8,1.5
	s24.4,1.2,36.5,1.9c12.1,0.7,24.1,1.5,36,2.3s23.8,1.7,35.5,2.7s23.4,2,34.9,3.1s22.9,2.2,34.2,3.5c11.3,1.2,22.4,2.5,33.4,3.8
	s21.8,2.7,32.5,4.2s21.2,3,31.6,4.6s20.6,3.2,30.6,4.9s19.8,3.4,29.5,5.2c9.6,1.8,19.1,3.7,28.3,5.6c9.2,1.9,18.3,3.9,27.1,6
	c8.8,2,17.4,4.1,25.8,6.2s16.5,4.3,24.4,6.5s15.6,4.4,23,6.7c7.4,2.3,14.6,4.6,21.5,7s13.6,4.8,20,7.2c6.4,2.4,12.6,4.9,18.4,7.4
	s11.5,5.1,16.8,7.6c5.3,2.6,10.4,5.2,15.2,7.8c4.8,2.6,9.3,5.3,13.5,8s8.1,5.4,11.7,8.1c3.6,2.7,7,5.5,10,8.2
	c2.9,2.6,5.6,5.4,8.2,8.3c2.3,2.7,4.5,5.5,6.4,8.4c1.8,2.7,3.3,5.5,4.6,8.5c1.2,2.7,2.1,5.6,2.8,8.5c1.2,5.6,1.2,11.5,0,17.1
	c-0.6,2.9-1.6,5.8-2.8,8.5c-1.3,3-2.8,5.8-4.6,8.5c-1.9,2.9-4.1,5.8-6.4,8.4c-2.6,2.9-5.3,5.7-8.2,8.3c-3,2.8-6.4,5.5-10,8.2
	s-7.5,5.4-11.7,8.1c-4.2,2.7-8.7,5.3-13.5,8s-9.8,5.3-15.2,7.8c-5.3,2.6-10.9,5.1-16.8,7.6s-12,5-18.4,7.4s-13.1,4.8-20,7.2
	c-6.9,2.4-14.1,4.7-21.5,7s-15.1,4.5-23,6.7s-16.1,4.4-24.4,6.5c-8.4,2.1-17,4.2-25.8,6.2s-17.8,4-27.1,5.9s-18.7,3.8-28.3,5.6
	s-19.5,3.6-29.5,5.3c-10,1.7-20.2,3.3-30.6,4.9s-20.9,3.1-31.6,4.6s-21.5,2.9-32.5,4.2c-11,1.3-22.2,2.6-33.4,3.8
	c-11.3,1.2-22.7,2.4-34.2,3.5s-23.2,2.1-34.9,3.1s-23.6,1.9-35.5,2.7s-23.9,1.6-36,2.3c-12.1,0.7-24.3,1.3-36.5,1.9
	s-24.5,1.1-36.8,1.5s-24.7,0.8-37.1,1s-24.8,0.5-37.3,0.6s-24.9,0.2-37.4,0.2s-24.9-0.1-37.4-0.2s-24.9-0.3-37.3-0.6
	s-24.8-0.6-37.1-1s-24.6-0.9-36.9-1.5c-12.2-0.6-24.4-1.2-36.5-1.9c-12.1-0.7-24.1-1.4-36-2.3s-23.7-1.7-35.5-2.7
	c-11.7-1-23.4-2-34.9-3.1s-22.9-2.2-34.2-3.5c-11.3-1.2-22.4-2.5-33.4-3.8s-21.8-2.7-32.5-4.2c-10.7-1.5-21.2-3-31.6-4.6
	c-10.4-1.6-20.6-3.2-30.6-4.9c-10-1.7-19.8-3.4-29.5-5.3s-19.1-3.7-28.3-5.6s-18.3-3.9-27.1-5.9s-17.4-4.1-25.8-6.2
	s-16.5-4.3-24.4-6.5s-15.6-4.4-23-6.7c-7.4-2.3-14.6-4.6-21.5-7s-13.6-4.6-20-7s-12.6-4.9-18.4-7.4s-11.5-5.1-16.8-7.6
	c-5.3-2.6-10.4-5.2-15.2-7.8s-9.3-5.3-13.5-8s-8.1-5.4-11.7-8.1c-3.6-2.7-7-5.5-10-8.2c-2.9-2.6-5.6-5.4-8.2-8.3
	c-2.3-2.7-4.5-5.5-6.4-8.4c-1.8-2.7-3.3-5.5-4.6-8.5c-1.2-2.7-2.1-5.6-2.8-8.5c-0.6-2.8-0.9-5.7-0.9-8.5c0-2.9,0.3-5.7,0.9-8.5
	c0.6-2.9,1.6-5.8,2.8-8.5c1.3-3,2.8-5.8,4.6-8.5c1.9-2.9,4.1-5.8,6.4-8.4c2.6-2.9,5.3-5.7,8.2-8.3c3-2.8,6.4-5.5,10-8.2
	s7.5-5.5,11.6-8.2c4.2-2.7,8.7-5.3,13.5-8s9.8-5.3,15.2-7.8c5.3-2.6,10.9-5.1,16.8-7.6s12-5,18.4-7.4s13.1-4.8,20-7.2
	c6.9-2.4,14.1-4.7,21.5-7s15.1-4.5,23-6.7s16-4.4,24.4-6.5s17-4.1,25.8-6.1s17.8-4,27.1-5.9c9.2-1.9,18.7-3.8,28.3-5.6
	s19.5-3.6,29.5-5.2c10-1.7,20.2-3.3,30.6-4.9s20.9-3.1,31.6-4.6c10.7-1.5,21.5-2.9,32.5-4.2s22.2-2.6,33.4-3.8
	c11.3-1.2,22.7-2.4,34.2-3.5c11.5-1.1,23.2-2.1,34.9-3.1c11.7-1,23.6-1.9,35.5-2.7s23.9-1.6,36-2.3c12.1-0.7,24.3-1.3,36.5-1.9
	s24.5-1.1,36.8-1.5s24.7-0.8,37.1-1s24.8-0.5,37.3-0.6C627.5,19.1,640,19,652.5,19"/>
<g>
	<path class="st1" d="M705.6,86.6l-0.2,78.7h-11.1v-55.2L674.4,129l-12.8-8.9l-28.9-19.4l-1.4-0.8V87c1.8-3.7,4.5-6.8,7.8-9.2V69
		h8.5v5c1.8-0.4,3.6-0.6,5.4-0.6c1.4,0,2.8,0.1,4.1,0.4V69h8.5v7.9c3.3,2,6.1,4.8,8.1,8.1v12.7h-11.3v-0.4
		c2.2-5.2-0.2-11.3-5.4-13.5c-1.3-0.5-2.6-0.8-4-0.8c-5.7,0-10.3,4.6-10.3,10.3l0,0v2.6l0.3,0.2l10.6,7.4l16.3,11.3l3.5,2.4
		l20.9-19.9L705.6,86.6z"/>
	<path class="st1" d="M673.8,137.1v13c-1.8,3.8-4.6,7-8.1,9.3v8.7h-8.5v-5c-3.1,0.7-6.4,0.7-9.5,0.2v4.9h-8.5V160
		c-3.2-2-5.9-4.7-7.8-8v-12.7h11.3v0.4c-1.1,2.6-1.1,5.5,0,8.1c2.2,5.2,8.3,7.6,13.5,5.4c3.8-1.6,6.2-5.3,6.2-9.5v-2.6l-0.3-0.2
		l-10.6-7.4l-16.3-11.3l-3.5-2.4l-20.9-13.2l0.1,58.7h-11.7l0.2-79.9l32.1,23.3l0,0l11.8,8.2l28.9,19.4L673.8,137.1z"/>
</g>
</svg>
