<svg id="Capa_1" data-nam8e="Capa 1" xmlns="http://www.w3.org/2000/svg" viewBox="0 0 1304.9 148.82"><defs><style>.cls-1{fill:#f2d81d;}.cls-2{fill:#385e8c;}.cls-3{fill:none;}</style></defs><g id="Capa_2" data-name="Capa 2"><path class="cls-1" d="M1304.9,148.82H0a35.25,35.25,0,0,1,3.17-14.38,45.6,45.6,0,0,1,3.94-7.28A62.57,62.57,0,0,1,12.59,120a90.57,90.57,0,0,1,7-7.11,104,104,0,0,1,8.56-7q4.62-3.47,10-6.94c3.6-2.31,7.45-4.54,11.56-6.85s8.39-4.54,13-6.68S72.1,81,77.15,78.86s10.28-4.28,15.76-6.33,11.21-4.11,17.12-6.17,12.08-4,18.41-6,12.93-3.85,19.7-5.74,13.78-3.77,20.89-5.56,14.56-3.6,22.09-5.31,15.25-3.43,23.21-5.06,16-3.25,24.23-4.79,16.7-3.08,25.26-4.54,17.3-2.82,26.21-4.2,17.89-2.65,27.05-3.93,18.41-2.49,27.83-3.6,19-2.23,28.6-3.25,19.44-2.06,29.29-3,19.86-1.8,29.88-2.66,20.21-1.62,30.4-2.31,20.47-1.37,30.83-2,20.81-1.11,31.25-1.62,21-1,31.51-1.29S577.82.86,588.44.69,609.68.26,620.38.17,641.7,0,652.41,0s21.32.09,32,.17,21.32.26,31.94.52,21.24.51,31.77.85,21.07.77,31.6,1.29,20.89,1,31.25,1.62,20.64,1.2,30.83,2,20.29,1.46,30.4,2.31,20,1.72,29.88,2.66,19.61,1.88,29.29,3,19.18,2.14,28.6,3.25,18.66,2.31,27.83,3.6,18.15,2.56,27,3.93,17.64,2.75,26.21,4.2,17,2.91,25.26,4.54,16.35,3.17,24.23,4.79,15.67,3.34,23.21,5.06,14.9,3.51,22.09,5.31,14.13,3.68,20.89,5.56,13.36,3.77,19.7,5.74,12.5,3.94,18.41,6,11.64,3.94,17.12,6,10.79,4.19,15.76,6.33,9.85,4.37,14.38,6.51,8.91,4.45,13,6.68,8,4.54,11.56,6.85,6.94,4.62,10,6.94,6,4.71,8.56,7a90.44,90.44,0,0,1,7,7.1,71.61,71.61,0,0,1,5.48,7.2,45.6,45.6,0,0,1,3.94,7.28,42.41,42.41,0,0,1,2.4,7.27A35.39,35.39,0,0,1,1304.9,148.82Z"/><g id="Capa_2-2" data-name="Capa 2"><g id="Capa_1-2" data-name="Capa 1-2"><path class="cls-2" d="M626,31.19a1.4,1.4,0,0,0-.3.9,27.63,27.63,0,0,0,3,6.38c.3.2,1.75.35,5.48.4,5.54.15,6.19.3,7.23,1.44a6.06,6.06,0,0,1,1.3,4.14,6.13,6.13,0,0,1-1.25,4.14c-1,1.24-1.94,1.59-5,1.74l-2.59.15V46.79c0-3-.05-3.79-.25-4.18-.5-1-1.05-1.15-3.09-1.15h-1.95V68.78h2.24c2.2,0,2.3,0,2.65-.55s.4-.55.4-5.14V58.51H635a19.65,19.65,0,0,1,6.13.89c1.75.9,2.8,2.75,2.94,5.34a7,7,0,0,1-1.29,5.08c-1.35,1.8-1.6,1.85-8.08,2-4.23.05-5.63.15-5.93.4-.55.35-3,5.78-3,6.53a2.34,2.34,0,0,0,.35,1l.35.45,7.68-.15c8.32-.15,9.52-.3,11.51-1.34,3.29-1.8,5.63-6.48,6-11.87.3-5-1.54-9.62-4.68-11.81-.55-.35-1.1-.7-1.65-1-.35-.15-.3-.2.55-1a13,13,0,0,0,4-9.87,13.52,13.52,0,0,0-1.5-6.73c-1.79-3.49-4-5-7.77-5.53-1-.1-4.54-.2-8-.2C626.53,30.74,626.33,30.74,626,31.19Z"/><path class="cls-2" d="M652.8,30.94a1.78,1.78,0,0,0-.7,1.45,45.52,45.52,0,0,0,2.39,5.43,3.19,3.19,0,0,0,.85.8c.55.35,1,.4,4.34.4,4.53,0,7.47.3,8.47.74a6.58,6.58,0,0,1,2.69,3.34,7.46,7.46,0,0,1,.35,2.9,6.86,6.86,0,0,1-1.34,4.78c-1.4,1.95-2.4,2.14-9.42,2.34-5.24.15-5.34.15-5.44.6,0,.25,0,6.08,0,13,0,11.67,0,12.56.35,12.91s.65.4,3.24.45l2.94,0,.4-.55.4-.54V61.5H663a46.73,46.73,0,0,0,7.42-.75c3.79-1,6.83-4.93,7.83-10.07a33.16,33.16,0,0,0,.1-9.17c-1-5.09-3.79-9-7.28-10.07C669.15,30.89,653.7,30.44,652.8,30.94Z"/></g></g></g><path class="cls-3" d="M0,0H652.41c-10.71,0-21.32.09-32,.17s-21.32.34-31.94.52-21.23.51-31.77.85-21.06.77-31.51,1.29-20.89,1-31.25,1.62-20.64,1.29-30.83,2-20.38,1.46-30.4,2.31-20,1.72-29.88,2.66-19.61,2-29.29,3-19.18,2.14-28.6,3.25-18.66,2.31-27.83,3.6S298.93,23.8,290,25.17s-17.64,2.75-26.21,4.2-17,3-25.26,4.54-16.27,3.17-24.23,4.79S198.66,42,191.12,43.76s-14.9,3.51-22.09,5.31-14.13,3.68-20.89,5.56-13.36,3.77-19.7,5.74-12.5,3.94-18.41,6-11.64,4.11-17.12,6.17S82.2,76.72,77.15,78.86s-9.85,4.29-14.38,6.51-8.91,4.37-13,6.68-8,4.54-11.56,6.85-6.94,4.63-10,6.94a104,104,0,0,0-8.56,7,90.57,90.57,0,0,0-7,7.11,62.57,62.57,0,0,0-5.48,7.19,45.6,45.6,0,0,0-3.94,7.28A35.25,35.25,0,0,0,0,148.82Z"/><path class="cls-3" d="M1304.9,0V148.82a35.39,35.39,0,0,0-.77-7.28,42.41,42.41,0,0,0-2.4-7.27,45.6,45.6,0,0,0-3.94-7.28,71.61,71.61,0,0,0-5.48-7.2,90.44,90.44,0,0,0-7-7.1c-2.57-2.31-5.48-4.71-8.56-7s-6.42-4.63-10-6.94-7.45-4.62-11.56-6.85-8.48-4.45-13-6.68-9.42-4.37-14.38-6.51-10.28-4.28-15.76-6.33-11.21-3.94-17.12-6-12.08-4-18.41-6-12.93-3.85-19.7-5.74-13.7-3.77-20.89-5.56-14.56-3.6-22.09-5.31-15.33-3.43-23.21-5.06-15.93-3.16-24.23-4.79-16.7-3.08-25.26-4.54-17.3-2.82-26.21-4.2-17.89-2.65-27-3.93-18.41-2.49-27.83-3.6-18.93-2.23-28.6-3.25-19.44-2.06-29.29-3-19.86-1.8-29.88-2.66S852,7.19,841.82,6.42s-20.47-1.37-30.83-2-20.81-1.11-31.25-1.62-21.07-1-31.6-1.29S727,.94,716.37.69,695.14.26,684.43.17,663.11,0,652.41,0Z"/></svg>
