<?xml version="1.0" encoding="utf-8"?>
<!-- Generator: Adobe Illustrator 24.3.0, SVG Export Plug-In . SVG Version: 6.00 Build 0)  -->
<svg version="1.1" xmlns="http://www.w3.org/2000/svg" xmlns:xlink="http://www.w3.org/1999/xlink" x="0px" y="0px"
	 viewBox="0 0 1304.9 243.5" style="enable-background:new 0 0 1304.9 243.5;" xml:space="preserve">
<style type="text/css">
	.st0{fill:#F2D81D;}
	.st1{fill:#385E8C;}
</style>
<g id="Layer_1">
	<path class="st0" d="M652.5,19c12.5,0,24.9,0.1,37.4,0.2s24.9,0.3,37.3,0.6c12.4,0.3,24.8,0.6,37.1,1s24.6,0.9,36.8,1.5
		s24.4,1.2,36.5,1.9c12.1,0.7,24.1,1.5,36,2.3s23.8,1.7,35.5,2.7s23.4,2,34.9,3.1s22.9,2.2,34.2,3.5c11.3,1.2,22.4,2.5,33.4,3.8
		s21.8,2.7,32.5,4.2s21.2,3,31.6,4.6s20.6,3.2,30.6,4.9s19.8,3.4,29.5,5.2c9.6,1.8,19.1,3.7,28.3,5.6c9.2,1.9,18.3,3.9,27.1,6
		c8.8,2,17.4,4.1,25.8,6.2s16.5,4.3,24.4,6.5s15.6,4.4,23,6.7c7.4,2.3,14.6,4.6,21.5,7s13.6,4.8,20,7.2c6.4,2.4,12.6,4.9,18.4,7.4
		s11.5,5.1,16.8,7.6c5.3,2.6,10.4,5.2,15.2,7.8c4.8,2.6,9.3,5.3,13.5,8s8.1,5.4,11.7,8.1c3.6,2.7,7,5.5,10,8.2
		c2.9,2.6,5.6,5.4,8.2,8.3c2.3,2.7,4.5,5.5,6.4,8.4c1.8,2.7,3.3,5.5,4.6,8.5c1.2,2.7,2.1,5.6,2.8,8.5c1.2,5.6,1.2,11.5,0,17.1
		c-0.6,2.9-1.6,5.8-2.8,8.5c-1.3,3-2.8,5.8-4.6,8.5c-1.9,2.9-4.1,5.8-6.4,8.4c-2.6,2.9-5.3,5.7-8.2,8.3c-3,2.8-6.4,5.5-10,8.2
		s-7.5,5.4-11.7,8.1c-4.2,2.7-8.7,5.3-13.5,8s-9.8,5.3-15.2,7.8c-5.3,2.6-10.9,5.1-16.8,7.6s-12,5-18.4,7.4s-13.1,4.8-20,7.2
		c-6.9,2.4-14.1,4.7-21.5,7s-15.1,4.5-23,6.7s-16.1,4.4-24.4,6.5c-8.4,2.1-17,4.2-25.8,6.2s-17.8,4-27.1,5.9s-18.7,3.8-28.3,5.6
		s-19.5,3.6-29.5,5.3c-10,1.7-20.2,3.3-30.6,4.9s-20.9,3.1-31.6,4.6s-21.5,2.9-32.5,4.2c-11,1.3-22.2,2.6-33.4,3.8
		c-11.3,1.2-22.7,2.4-34.2,3.5s-23.2,2.1-34.9,3.1s-23.6,1.9-35.5,2.7s-23.9,1.6-36,2.3c-12.1,0.7-24.3,1.3-36.5,1.9
		s-24.5,1.1-36.8,1.5s-24.7,0.8-37.1,1s-24.8,0.5-37.3,0.6s-24.9,0.2-37.4,0.2s-24.9-0.1-37.4-0.2s-24.9-0.3-37.3-0.6
		s-24.8-0.6-37.1-1s-24.6-0.9-36.9-1.5c-12.2-0.6-24.4-1.2-36.5-1.9c-12.1-0.7-24.1-1.4-36-2.3s-23.7-1.7-35.5-2.7
		c-11.7-1-23.4-2-34.9-3.1s-22.9-2.2-34.2-3.5c-11.3-1.2-22.4-2.5-33.4-3.8s-21.8-2.7-32.5-4.2c-10.7-1.5-21.2-3-31.6-4.6
		c-10.4-1.6-20.6-3.2-30.6-4.9c-10-1.7-19.8-3.4-29.5-5.3s-19.1-3.7-28.3-5.6s-18.3-3.9-27.1-5.9s-17.4-4.1-25.8-6.2
		s-16.5-4.3-24.4-6.5s-15.6-4.4-23-6.7c-7.4-2.3-14.6-4.6-21.5-7s-13.6-4.6-20-7s-12.6-4.9-18.4-7.4s-11.5-5.1-16.8-7.6
		c-5.3-2.6-10.4-5.2-15.2-7.8s-9.3-5.3-13.5-8s-8.1-5.4-11.7-8.1c-3.6-2.7-7-5.5-10-8.2c-2.9-2.6-5.6-5.4-8.2-8.3
		c-2.3-2.7-4.5-5.5-6.4-8.4c-1.8-2.7-3.3-5.5-4.6-8.5c-1.2-2.7-2.1-5.6-2.8-8.5c-0.6-2.8-0.9-5.7-0.9-8.5c0-2.9,0.3-5.7,0.9-8.5
		c0.6-2.9,1.6-5.8,2.8-8.5c1.3-3,2.8-5.8,4.6-8.5c1.9-2.9,4.1-5.8,6.4-8.4c2.6-2.9,5.3-5.7,8.2-8.3c3-2.8,6.4-5.5,10-8.2
		s7.5-5.5,11.6-8.2c4.2-2.7,8.7-5.3,13.5-8s9.8-5.3,15.2-7.8c5.3-2.6,10.9-5.1,16.8-7.6s12-5,18.4-7.4s13.1-4.8,20-7.2
		c6.9-2.4,14.1-4.7,21.5-7s15.1-4.5,23-6.7s16-4.4,24.4-6.5s17-4.1,25.8-6.1s17.8-4,27.1-5.9c9.2-1.9,18.7-3.8,28.3-5.6
		s19.5-3.6,29.5-5.2c10-1.7,20.2-3.3,30.6-4.9s20.9-3.1,31.6-4.6c10.7-1.5,21.5-2.9,32.5-4.2s22.2-2.6,33.4-3.8
		c11.3-1.2,22.7-2.4,34.2-3.5c11.5-1.1,23.2-2.1,34.9-3.1c11.7-1,23.6-1.9,35.5-2.7s23.9-1.6,36-2.3c12.1-0.7,24.3-1.3,36.5-1.9
		s24.5-1.1,36.8-1.5s24.7-0.8,37.1-1s24.8-0.5,37.3-0.6C627.5,19.1,640,19,652.5,19"/>
</g>
<g id="Capa_2">
	<g id="Capa_2_1_">
		<g id="Capa_1-2">
			<path class="st1" d="M599.8,69.9c-0.4,0.5-0.6,1.1-0.6,1.8c0,1.4,5,12.1,6,12.8c0.6,0.4,3.5,0.7,11,0.8
				c11.1,0.3,12.4,0.6,14.5,2.9c1.7,1.9,2.6,4.7,2.6,8.3c0,3.7-0.8,6.2-2.5,8.3c-2.1,2.5-3.9,3.2-10,3.5l-5.2,0.3v-7.4
				c0-6-0.1-7.6-0.5-8.4c-1-1.9-2.1-2.3-6.2-2.3H605v54.8h4.5c4.4,0,4.6,0,5.3-1.1c0.8-1.1,0.8-1.1,0.8-10.3v-9.2h2.2
				c4.5,0,10.6,0.9,12.3,1.8c3.5,1.8,5.6,5.5,5.9,10.7c0.3,4.3-0.5,7.4-2.6,10.2c-2.7,3.6-3.2,3.7-16.2,4
				c-8.5,0.1-11.3,0.3-11.9,0.8c-1.1,0.7-6.1,11.6-6.1,13.1c0.1,0.8,0.3,1.5,0.7,2.1l0.7,0.9l15.4-0.3c16.7-0.3,19.1-0.6,23.1-2.7
				c6.6-3.6,11.3-13,12-23.8c0.6-10.1-3.1-19.3-9.4-23.7c-1.1-0.7-2.2-1.4-3.3-2c-0.7-0.3-0.6-0.4,1.1-2c5.1-4.6,8-11.6,8-19.8
				c0-5.4-0.8-9.2-3-13.5c-3.6-7-8-10.1-15.6-11.1c-1.9-0.2-9.1-0.4-16-0.4C600.9,69,600.5,69,599.8,69.9z"/>
			<path class="st1" d="M653.6,69.4c-0.8,0.5-1.4,1.7-1.4,2.9c0,0.7,3.8,9.2,4.8,10.9c0.5,0.7,1.1,1.2,1.7,1.6
				c1.1,0.7,2,0.8,8.7,0.8c9.1,0,15,0.6,17,1.5c2,1,4.5,4,5.4,6.7c0.6,1.7,0.7,2.8,0.7,5.8c0,4.5-0.6,6.8-2.7,9.6
				c-2.8,3.9-4.8,4.3-18.9,4.7c-10.5,0.3-10.7,0.3-10.9,1.2c-0.1,0.5-0.1,12.2-0.1,26c0.1,23.4,0.1,25.2,0.7,25.9
				c0.5,0.7,1.3,0.8,6.5,0.9l5.9,0.1l0.8-1.1l0.8-1.1v-35.1h1.5c4,0,12.8-0.9,14.9-1.5c7.6-2.1,13.7-9.9,15.7-20.2
				c0.9-4.6,1-13.9,0.2-18.4c-1.9-10.2-7.6-18.1-14.6-20.2C686.4,69.3,655.4,68.4,653.6,69.4z"/>
		</g>
	</g>
</g>
</svg>
