<svg id="Layer_1" data-name="Layer 1" xmlns="http://www.w3.org/2000/svg" viewBox="0 0 2036 1504"><defs><style>.cls-1{fill:#ddd;}.cls-2{fill:#f7a491;}.cls-3{fill:#3c8f7c;}.cls-4{fill:#115e8e;}.cls-5{fill:#186f9b;}.cls-6{fill:#333;}.cls-7{fill:#fbd800;}.cls-8{fill:#f47458;}.cls-9{fill:#fff;}.cls-10{fill:#63aed3;}.cls-11{fill:#184655;}.cls-12{fill:#dbb705;}.cls-13{fill:#c4b9c7;}.cls-14{fill:#b75742;}.cls-15{fill:#13375b;}.cls-16{fill:#f8a492;}</style></defs><title>login</title><path class="cls-1" d="M1951.55,1426.49H70.27A11.29,11.29,0,0,1,59,1415.2h0a11.29,11.29,0,0,1,11.29-11.29H1951.55a11.29,11.29,0,0,1,11.29,11.29h0A11.29,11.29,0,0,1,1951.55,1426.49Z"/><path class="cls-2" d="M1234.77,1330.29c1.38-9.91-1.72-27-9.46-53.63,15.32,0,28.2-6.76,43.86-6.53,4.28,25.08,10.9,66.27,10.9,66.27l.71,32.56-109,.82s.91.47,33-19.9C1207.19,1348.37,1233.44,1339.87,1234.77,1330.29Z"/><path class="cls-3" d="M1281.31,1377.32H1168.77c-4.16-.38-5.17-3.78-3.73-5.88,3-4.32,24.92-14.7,39.68-21.59,25.88,2.73,71.38-8,75.46-14C1287.28,1355.8,1283.62,1376.81,1281.31,1377.32Z"/><path class="cls-2" d="M1370.58,1330.29c1.38-9.91,3.72-22.32.29-55.37,15.32,0,29.9-2.85,45.56-2.61,0,25.8-.54,64.09-.54,64.09l.71,32.56-109,.82s.91.47,33-19.9C1343,1348.37,1369.25,1339.87,1370.58,1330.29Z"/><path class="cls-3" d="M1417.11,1377.32H1304.57c-4.16-.38-5.18-3.78-3.73-5.88,3-4.32,24.92-14.7,39.68-21.59,25.88,2.73,71.38-8,75.46-14C1423.08,1355.8,1419.43,1376.81,1417.11,1377.32Z"/><path class="cls-2" d="M1291.35,386.08l-41-43.39s-43.9,24.21-95.06,47.34c-14.07-24.56-37-105.33-38.26-109.18s26.89-52.39,20.6-53.6-14.46,25.91-21.11,23.16-23.75-65.69-27.75-62.25c-7.49,6.43,9,39.15,5,41.53s-14-36.27-21.59-34.62,12.88,35.19,10.63,38.41-23.67-28.24-28.1-21c-2.4,4,19.76,27.4,15.21,30s-24.54-12.14-26.92-7.36,18.64,9.77,24.48,21.87,16.45,16.81,20,39.7,13.15,145.19,38,155C1147.2,460.34,1291.35,386.08,1291.35,386.08Z"/><path class="cls-4" d="M1264.86,620.12l33.25,18.6,67.6,103.66-120.89,285.38s13.61,42.91,18.05,64.36c4.64,22.44,16,215,16,215l-51.57.87s-49-205-57.28-271.51c-10.07-80.79,51.26-273.2,51.26-273.2,11.44-39.26,36.1-120,36.1-120S1263.44,623.56,1264.86,620.12Z"/><path class="cls-5" d="M1380.61,581.18s-3.44,24.39,10.32,52.2c8.38,17,22.86,30.25,33.23,51,19.63,39.31,30.28,95.14,22.92,131,0,0-40.58,155.41-39,212.2.59,20.95,7.76,58.68,12.34,84.19,4.05,22.55,5.42,192.66,5.42,192.66l-57.59-1.74-44.1-274.41-18.65-243.92-40.68-164.29Z"/><path class="cls-6" d="M1252.58,218.66c5.32-25.19,10.81-50.47,35.76-68.62,20.19-14.68,41.9-18.88,64.9-10.51,65.19,23.71,30.13,75.6,111,130.9,25.14,17.19,34.68,23.18,52.72,46.08,25.25,32.05,39.05,75.06,26.36,110.47-26.25,73.22-107.58,94.38-150.13,78.85C1314,476.93,1248,376.2,1243.65,348.71,1239,319.29,1249.15,234.87,1252.58,218.66Z"/><path class="cls-7" d="M1246.54,413.34c-18.35,8.51-51.59,21.28-51.59,21.28l-18.91-60c106.88-61,98.49-51.14,178.71-49.94,64.08.92,90.94-11.36,146.12,138.06,0,0-42,18.93-57,25-6.47-18.47-18.16-55.3-25-34.3a612.62,612.62,0,0,0-22.9,96.73c-3.21,19.55-10.2,44.57-6.53,64.48,0,0-43.64,9-77,10.48a1.43,1.43,0,0,1-.29,0c-16.11-.41-32.6-1.84-47.29-5,0,0-6.53-138.6-10-144.38-3.87-6.4-20.2-27.09-6.3-58C1251,412.22,1250.32,411.58,1246.54,413.34Z"/><path class="cls-2" d="M1344.7,263s5.11,41.33,8.11,55.69c3.15,15,7.88,62.3-23.16,70s-21.45-51.45-22-66.72-9.31-68.51-9.31-68.51Z"/><path class="cls-8" d="M1346.39,276.19c-.32.19-.61.39-.93.58-17.16,9.87-32.09,8.31-43.3.63-2-13.21-3.78-24-3.78-24L1344.7,263S1345.38,268.51,1346.39,276.19Z"/><path class="cls-2" d="M1335.37,155.36A53.13,53.13,0,0,1,1364,178.61c10.49,18.12,15.72,70.16-22.89,92.36s-66-13.37-64.85-46.66S1286.72,147,1335.37,155.36Z"/><path class="cls-2" d="M1267.77,210c-.43,8.65,3.26,15.87,8.24,16.12s9.37-6.56,9.79-15.21-3.26-15.87-8.24-16.12S1268.2,201.38,1267.77,210Z"/><path class="cls-6" d="M1329.9,154s20.82,54.43,41.19,60.23,18.75,32.57,18.75,32.57,2.61-61.88-16-77.05S1329.9,154,1329.9,154Z"/><path class="cls-2" d="M1362.35,224.87c-3.14,8.51-1.08,17.15,4.6,19.3s12.84-3,16-11.51,1.08-17.15-4.6-19.29S1365.5,216.36,1362.35,224.87Z"/><path class="cls-2" d="M1326.76,653.91c-.76.1-4.16-.34-6.94-.28a53,53,0,0,0-7.22.66,20.4,20.4,0,0,0-4.4-2.66c-1.2-.55-3.16-.76-4.5-1.38s-2.55-1.83-3.85-2.42c-3.4-1.48-6.53-1.83-7.56,0-.86,1.48,18.08,13.1,18.08,13.1,17.54.1,35.9,9.07,76.53-17.52,23.21-10.17,135.91-66,138.18-78.17,1.27-6.83-16-59.69-30.15-99.83-10.9,4.9-34.07,15.24-47,20.69,11.89,25.28,25.92,58.8,24.44,62.9-.38,1.07-1.79,3-78,53-1.93,1.24-3.88,2.55-5.88,3.86q-8,5.28-17.19,11.24l-21.73-2.28s-34.42,2.38-35.45,6.31c-.45,1.79,2.41,2.69,5.91,3.21h.1l1.54.21h.07c3.78.45,7.77.52,8.73.86a22.64,22.64,0,0,1,5.19,2.55c-21.45,8.79-19.8,5.66-26.92,5.21-1.79-.14-3.68.38-5.37.24-2.89-.24-5.19-2-7.42-2.1a9.66,9.66,0,0,0-6.5,2c-.76.76.65,1.86,3.4,3.1,16.57,7.21,30.29,4.45,34.69,5.52,3,.72-2.44,1.83-10.86.93-2.1-.21-4.85.55-7.63-.1-1.86-.41-3.54-1.62-5.36-2.07s-3.4-.38-4.81-.66c-1.86-.34-4.43-1.76-5.91-1.93-5.5-.62-8.18.34-8.8.86-1.27,1.14,23.72,10.76,23.72,10.76s17.22,2.48,21.07,2.48C1329,652.19,1331.27,653.22,1326.76,653.91Z"/><rect class="cls-9" x="1354.52" y="394.46" width="28.36" height="58.29" transform="matrix(0.08, -1, 1, 0.08, 840.94, 1755.61)"/><polygon class="cls-4" points="1329.84 1403.91 753.36 1403.91 604.46 761.52 1329.84 761.52 1329.84 1403.91"/><rect class="cls-5" x="1328.35" y="761.52" width="419.2" height="642.39"/><rect class="cls-10" x="522.17" y="738.28" width="1295.07" height="23.24"/><polygon class="cls-11" points="909.82 604.68 915.28 738.27 977.98 738.27 928.29 611.95 909.82 604.68"/><rect class="cls-11" x="797.43" y="474.27" width="292.94" height="227.21" rx="5.45" ry="5.45"/><rect class="cls-11" x="786.85" y="417.25" width="101.78" height="48.14" rx="2.73" ry="2.73"/><rect class="cls-11" x="835.7" y="450.76" width="8.18" height="29.99"/><path class="cls-12" d="M817.26,571H655.52s-32.67,120.66-39.14,173.71,48.52,416.92,48.52,416.92l60,4.9s7.32-309.25,7.32-337.71,0-54.47.49-54.47,13.09,392.18,13.09,392.18h61.92s37.71-323.48,46.77-399.82S817.26,571,817.26,571Z"/><polygon class="cls-7" points="824.7 566.18 849.28 639.28 647.73 597.48 654.23 568.31 824.7 566.18"/><path class="cls-7" d="M650.2,711l49.49-14.24-22-97-19.09-7.12Zm11.32-38.17,7.12-68.58,12.94,68.58Z"/><path class="cls-7" d="M594.86,686.51l39.46,21.35,26.85-115.23-8.41-3.81ZM628,685.22c-3.39,0-18.28-6.47-18.28-6.47l43-76S631.4,685.22,628,685.22Z"/><path class="cls-7" d="M620.26,556.63v5.18H844.11v-5.18a60.39,60.39,0,0,0-60.33-60.33h-50V455.36h-5.18a18.46,18.46,0,0,1-18.44-18.44c0-17,21.18-24.9,32.34-12.11l7.8-6.81a28.8,28.8,0,0,0-21.7-9.87c-34.91,0-39.43,50.87-5.18,57.11V496.3H680.58A60.39,60.39,0,0,0,620.26,556.63Zm10.62-5.18a50,50,0,0,1,49.71-44.8H783.78a50.05,50.05,0,0,1,49.71,44.8Z"/><rect class="cls-13" x="802.45" y="548.16" width="11.62" height="31.82" transform="translate(1616.51 1128.14) rotate(180)"/><rect class="cls-13" x="669.14" y="548.16" width="11.62" height="31.82" transform="translate(1349.89 1128.14) rotate(180)"/><path class="cls-2" d="M371.25,813.49s-2.89-7-3.66-9.41c-.91-2.82-2.95-11.46-2.95-11.46S359,762.2,361.34,762s6.33,4.47,7.36,6.23,2.41,3.72,3.44,5.48,3.23,2.47,5.58,1.38-.18-9-1.61-11.51c-4.47-8-20.84-26.89-22.48-29-1.94-2.46-1.73-57-3.19-75.65h0c-1.45-30.65-1.35-62.23-1.49-65.48L382.1,466,338.61,436.1S299.77,577,298.66,584.28c-.53,3.46,8.51,74.24,8.54,74.24,6.72,34.58,12.73,65,13.71,70.93,0,0-1.94,18.36-3.89,30s1.07,23.07,1,26.42a73.66,73.66,0,0,0,3.73,25.49c3.87,11.62,5.73-1.19,5.73-1.19s-3.15-22.83-1.24-22.78c1.47,0,2.43,12.61,6.57,25.51,1.06,3.32,2.13,6.59,3.13,9.58,2.63,7.86,8.39,8.49,7-.19a79.86,79.86,0,0,0-2.63-11.64c-1.3-3.79-1.22-7.7-1.8-11.06-1.16-6.67-2.09-11.51-1.78-11.41s1.14-1.36,2.38,2.12c1.5,4.19,2.62,13.8,5.32,19.79,1.53,3.4,4.27,10.69,4.27,10.69s5.79,11.34,6.54,11.18c4.05-.88,2.32-10.17-.39-14.51-.24-3.64-3.35-11.23-3.35-11.23s-2.71-16.77-.26-17.21c2-.36,16.54,38.48,20.53,37.32C375.07,825.37,371.25,813.49,371.25,813.49Z"/><path class="cls-14" d="M372.4,538.19s-23.54.16-36.48-2.1c-17.23-3-28.81-6.26-28.81-6.26S311.2,453.22,325,404.71c5.72-20,13.31-30.56,25.81-34.94.08,0,30.4,12.56,37.07,54.43C389.48,434,372.4,538.19,372.4,538.19Z"/><path class="cls-2" d="M435.69,782.48l30.07,268s-14.7,56.69-12.93,72.79,32.69,227.35,32.69,227.35l-1.3,11.85,0,35H598.95s-24.36-10.88-58.43-32.39c-2.52-1.59-8.33-6.66-9.74-16.77-9.1-65.11,8.9-282.3,8.9-282.3l14.18-282.71Z"/><path class="cls-2" d="M343.46,838.86C337,840.5,327,1071,321.63,1081.19c-34,64.76-42.12,261.65-42.12,261.65l-10.15,28.65-6.8,30.73s28.62,8.52,46.44-1.3l-.15-30.36-1.81-31,85.85-245.29,47-250.2Z"/><path class="cls-8" d="M514.2,392.41c-13.85-18.88-71-73.56-77.33-73.45-18.5.32-79.24.35-91.12,6.36l.57,104.1c1.94,8.74,43.87,144.84,41.43,174.63l.29.28c35.14,33.84,90.57,31.18,122.71-5.89h0s-.14-41.29,4.81-78.95C523.31,460.5,548.6,439.3,514.2,392.41Z"/><path class="cls-11" d="M564.58,956.84l4.08-159a306.21,306.21,0,0,0-26.89-130.41l-31-69c-12.55,4-24.38,7.37-37.57,8.85-28.69,3.21-56.9,0-85.43-3.24a21.27,21.27,0,0,1-.39,2.81c-5.18,23.42-34,75.63-46.16,147-13.79,81-17.39,193.31-15.67,202.81C405.39,975.31,487.24,975.92,564.58,956.84Z"/><path class="cls-2" d="M418.25,260.36s1.6,38.41-1.86,53S408.32,329,438,333.42c11.67,1.74,22.91,4.34,22.91,4.34s-3-21.38-3.51-30.41c-.76-14.86,3.43-60.77,3.43-60.77Z"/><path class="cls-8" d="M440.86,279.48a53.24,53.24,0,0,0,17.08,6c1-18.13,2.91-38.94,2.91-38.94l-40.64,13.15A53.27,53.27,0,0,0,440.86,279.48Z"/><path class="cls-15" d="M308.86,1370.42c-15.67,7-32.54,2.76-39.33.54l-2.25,6.05-8.64,28.74s34.39,8.51,52.21-1.3Z"/><path class="cls-15" d="M483,1406.2H602.31c4.41-.4,5.49-4,4-6.21-3.15-4.56-17.07-7.91-32.71-15.18-27.44,2.88-85-16-89.35-22.36C481.7,1375.16,480.55,1405.66,483,1406.2Z"/><path class="cls-14" d="M434.63,745.06v50c0,26,21.77,47.11,48.63,47.11h50V725.56H454.76a20.38,20.38,0,0,0-13.86,5.37A19.11,19.11,0,0,0,434.63,745.06Z"/><path class="cls-14" d="M434.85,746.92l14.86-.3-8.37-391.38c15.57,2.79,28.61,14,33,29.08L577.73,737.75l14.3-3.92L488.66,380.4c-6.93-23.68-29.51-40.23-54.92-40.23h-7.58Z"/><path class="cls-16" d="M515.25,443.83l39.06,87.25c24.8-23.89,92.82-70,109.21-82.62,21.68-23.35,30.92-27.57,39.3-29.56,4.5-1.07,23.59-4.52,23.59-4.52s22.22,6,21.82,7.53c-1.35,5.26-22.1-.83-22.1-.83s-12.22,3.26-13.93,4c-4.26,1.78-1.67,2.14-1.67,2.14,3.83-1,21.27-2.55,21.27-2.55s28,2.05,27.09,3.44c-.55.82-5.29,2.49-14.3,3.21-5.5.44-14.58-.2-19.49.55-8.61,1.32-13.29,4.63-10.14,4.54,2.3-.06,5-2.15,10.16-3,12.57-2,31.41-.83,30.2,1.27-1.07,1.84-14.87,3.12-26.33,6-5,1.24-12.95,7.06-18,10.71a23.43,23.43,0,0,0,5.91,1.07c2.21.12,17.33-4.11,17.49-.21s-33.32,14.9-33.32,14.9l-18,2.92-.86.53v0S583.63,599.72,535.51,593.39c-41-5.39-84-139-83.21-138.57Z"/><path class="cls-14" d="M411.66,369.85c-8.59,35.28,37.23,113.93,37.23,113.93s65.29-30.72,76.76-44c0,0-44.35-76.32-47.26-81-13.16-21-31-21-42.68-19.66C426.37,340.31,411.66,369.85,411.66,369.85Z"/><path class="cls-6" d="M410.6,380.67c30.21-26.29,41.61-84.27,21.9-118.81,13.69-17.76,22.46-14.6,19.41-36.69-6-43.59,54.82-69.84,9.37-81.43-45.93-9.18-84.12,18.95-105.13,46.89a111.2,111.2,0,0,1-35.24,31.13c-27.74,15.17-42.37,51.56-27.64,89.5-22.21,12.43-41.61,48.36-26.91,78.19,3.53,7.16,10.66,15.54,10.88,17.6-.42-2.53-20.69,64,55,86.67C409.5,516.84,425.41,442.9,410.6,380.67Z"/><ellipse class="cls-2" cx="447.18" cy="223.54" rx="8.02" ry="17.35"/><path class="cls-8" d="M440.9,730.92h.33c10.32,0,18.69,8.11,18.69,18.1v36.81c0,31.13,26.06,56.38,58.2,56.38h30.46c32.14,0,58.2-25.24,58.2-56.37V749.21c0-13.06-10.93-23.65-24.42-23.65H454.76A20.38,20.38,0,0,0,440.9,730.92Z"/><path class="cls-6" d="M388.5,189.52C379.56,226.3,428,253,466.29,254c24.91.64,36.36-1.92,40.38-28.09,6.53-42.45-11-68.33-35.59-79C439.37,133,395.88,159.19,388.5,189.52Z"/><path class="cls-2" d="M444.79,164.78S427.94,170.44,419,187.4s-4.52,71.29,32.85,89.2,54.54-22.77,51.83-52.79S490.11,154.52,444.79,164.78Z"/><path class="cls-6" d="M405.68,228.51c-5.53-28.08-3.36-49.35,16.64-59.63s37.1-20.46,55-2l4,2.27s-33.78,9.31-35.66,27.2-19.84,39.15-17.08,47.94,6,26.31,6,26.31l-7.4-6.06S411.21,256.59,405.68,228.51Z"/><path class="cls-2" d="M440.5,217.77c2.79,7.75.68,15.54-4.71,17.39s-12-2.94-14.82-10.69-.68-15.54,4.71-17.38S437.71,210,440.5,217.77Z"/></svg>