<svg id="Capa_1" data-name="Capa 1" xmlns="http://www.w3.org/2000/svg" viewBox="0 0 22.5 20.32"><defs><style>.cls-1{fill:#385e8c;}</style></defs><path class="cls-1" d="M114.5,90c-.6.6-.63.76-.23,1.76,6.13,14.84,6.3,15.2,7.26,15.54.64.23,1,.56,1,1,0,.86,1.13,1.5,2.2,1.23a1.43,1.43,0,0,0,1-1.2c.27-1.43,1.6-1.43,1.87,0a1.64,1.64,0,0,0,3.23,0,1.08,1.08,0,0,1,1.07-.9,2.28,2.28,0,0,0,1.2-.5,75.83,75.83,0,0,0,3.4-8.57,9.89,9.89,0,0,0-2-3.33c-.14,0-.47.66-.77,1.5l-.6,1.5h-4.3c-4.73,0-4.8,0-3.8,2l.53,1h3.14a19.72,19.72,0,0,1,3.16.13,13.19,13.19,0,0,1-.5,1.33c-.63,1.5-1.5,1.87-4.5,1.87-3.73,0-3.56.17-6.33-6.57-3.37-8.16-3.5-8.43-4.5-8.43A2.45,2.45,0,0,0,114.5,90Z" transform="translate(-114 -89.32)"/><path class="cls-1" d="M120.37,93a9.84,9.84,0,0,0-.87,1.5c0,.1,3.3.16,7.33.16s7.34-.06,7.34-.16a9.84,9.84,0,0,0-.87-1.5l-.9-1.34H121.27Z" transform="translate(-114 -89.32)"/></svg>